<svg xmlns="http://www.w3.org/2000/svg" xmlns:xlink="http://www.w3.org/1999/xlink" width="1920" zoomAndPan="magnify" viewBox="0 0 1440 74.999997" height="100" preserveAspectRatio="xMidYMid meet" version="1.0"><defs><clipPath id="ab323fcd89"><path d="M 184 21 L 199 21 L 199 55.757812 L 184 55.757812 Z M 184 21 " clip-rule="nonzero"/></clipPath><clipPath id="e7d270cc02"><path d="M 189 0.257812 L 194.90625 0.257812 L 194.90625 5.753906 L 189 5.753906 Z M 189 0.257812 " clip-rule="nonzero"/></clipPath><clipPath id="eec8a47f7c"><path d="M 129 21 L 144 21 L 144 55.757812 L 129 55.757812 Z M 129 21 " clip-rule="nonzero"/></clipPath><clipPath id="c5c7a65dc4"><path d="M 133.671875 0.257812 L 139.65625 0.257812 L 139.65625 5.753906 L 133.671875 5.753906 Z M 133.671875 0.257812 " clip-rule="nonzero"/></clipPath><clipPath id="18ae52f6df"><path d="M 73 21 L 88 21 L 88 55.757812 L 73 55.757812 Z M 73 21 " clip-rule="nonzero"/></clipPath><clipPath id="12e96b05c3"><path d="M 78 0.257812 L 83.484375 0.257812 L 83.484375 5.753906 L 78 5.753906 Z M 78 0.257812 " clip-rule="nonzero"/></clipPath><clipPath id="45fa0d0b01"><path d="M 18 21 L 33 21 L 33 55.757812 L 18 55.757812 Z M 18 21 " clip-rule="nonzero"/></clipPath><clipPath id="384185d010"><path d="M 22.707031 0.257812 L 28.234375 0.257812 L 28.234375 5.753906 L 22.707031 5.753906 Z M 22.707031 0.257812 " clip-rule="nonzero"/></clipPath><clipPath id="76f86b9988"><path d="M 1.386719 12.203125 L 18 12.203125 L 18 22 L 1.386719 22 Z M 1.386719 12.203125 " clip-rule="nonzero"/></clipPath><clipPath id="9c04ed5e23"><path d="M 406 21 L 421 21 L 421 55.757812 L 406 55.757812 Z M 406 21 " clip-rule="nonzero"/></clipPath><clipPath id="7fda2fb4d6"><path d="M 411 0.257812 L 416.863281 0.257812 L 416.863281 5.753906 L 411 5.753906 Z M 411 0.257812 " clip-rule="nonzero"/></clipPath><clipPath id="f6546a7fad"><path d="M 351 21 L 366 21 L 366 55.757812 L 351 55.757812 Z M 351 21 " clip-rule="nonzero"/></clipPath><clipPath id="5aa4eff2d6"><path d="M 355.628906 0.257812 L 361.613281 0.257812 L 361.613281 5.753906 L 355.628906 5.753906 Z M 355.628906 0.257812 " clip-rule="nonzero"/></clipPath><clipPath id="ed3d5086c4"><path d="M 295 21 L 310 21 L 310 55.757812 L 295 55.757812 Z M 295 21 " clip-rule="nonzero"/></clipPath><clipPath id="9780cca87a"><path d="M 300 0.257812 L 305.441406 0.257812 L 305.441406 5.753906 L 300 5.753906 Z M 300 0.257812 " clip-rule="nonzero"/></clipPath><clipPath id="ae816e7be9"><path d="M 240 21 L 255 21 L 255 55.757812 L 240 55.757812 Z M 240 21 " clip-rule="nonzero"/></clipPath><clipPath id="9a90cacf7c"><path d="M 244.664062 0.257812 L 250.191406 0.257812 L 250.191406 5.753906 L 244.664062 5.753906 Z M 244.664062 0.257812 " clip-rule="nonzero"/></clipPath><clipPath id="1b3b5e098a"><path d="M 223.34375 12.203125 L 240 12.203125 L 240 22 L 223.34375 22 Z M 223.34375 12.203125 " clip-rule="nonzero"/></clipPath><clipPath id="181801810c"><path d="M 628 21 L 643 21 L 643 55.757812 L 628 55.757812 Z M 628 21 " clip-rule="nonzero"/></clipPath><clipPath id="9d85b36865"><path d="M 633 0.257812 L 638.894531 0.257812 L 638.894531 5.753906 L 633 5.753906 Z M 633 0.257812 " clip-rule="nonzero"/></clipPath><clipPath id="8e52ae4cfe"><path d="M 573 21 L 588 21 L 588 55.757812 L 573 55.757812 Z M 573 21 " clip-rule="nonzero"/></clipPath><clipPath id="d33c26770d"><path d="M 577.65625 0.257812 L 583.640625 0.257812 L 583.640625 5.753906 L 577.65625 5.753906 Z M 577.65625 0.257812 " clip-rule="nonzero"/></clipPath><clipPath id="784767f42e"><path d="M 517 21 L 532 21 L 532 55.757812 L 517 55.757812 Z M 517 21 " clip-rule="nonzero"/></clipPath><clipPath id="dc150508fd"><path d="M 522 0.257812 L 527.46875 0.257812 L 527.46875 5.753906 L 522 5.753906 Z M 522 0.257812 " clip-rule="nonzero"/></clipPath><clipPath id="749258de9c"><path d="M 462 21 L 477 21 L 477 55.757812 L 462 55.757812 Z M 462 21 " clip-rule="nonzero"/></clipPath><clipPath id="d3165565af"><path d="M 466.695312 0.257812 L 472.21875 0.257812 L 472.21875 5.753906 L 466.695312 5.753906 Z M 466.695312 0.257812 " clip-rule="nonzero"/></clipPath><clipPath id="e06b2ecfb1"><path d="M 445.371094 12.203125 L 462 12.203125 L 462 22 L 445.371094 22 Z M 445.371094 12.203125 " clip-rule="nonzero"/></clipPath><clipPath id="a5269e48d7"><path d="M 850 21 L 865 21 L 865 55.757812 L 850 55.757812 Z M 850 21 " clip-rule="nonzero"/></clipPath><clipPath id="dc251a6a97"><path d="M 855 0.257812 L 860.851562 0.257812 L 860.851562 5.753906 L 855 5.753906 Z M 855 0.257812 " clip-rule="nonzero"/></clipPath><clipPath id="7b2b4ef319"><path d="M 795 21 L 810 21 L 810 55.757812 L 795 55.757812 Z M 795 21 " clip-rule="nonzero"/></clipPath><clipPath id="a972e1bfa9"><path d="M 799.613281 0.257812 L 805.597656 0.257812 L 805.597656 5.753906 L 799.613281 5.753906 Z M 799.613281 0.257812 " clip-rule="nonzero"/></clipPath><clipPath id="556cbc2fa8"><path d="M 739 21 L 754 21 L 754 55.757812 L 739 55.757812 Z M 739 21 " clip-rule="nonzero"/></clipPath><clipPath id="567c72b8f4"><path d="M 744 0.257812 L 749.425781 0.257812 L 749.425781 5.753906 L 744 5.753906 Z M 744 0.257812 " clip-rule="nonzero"/></clipPath><clipPath id="9809844236"><path d="M 684 21 L 699 21 L 699 55.757812 L 684 55.757812 Z M 684 21 " clip-rule="nonzero"/></clipPath><clipPath id="61f59b5f82"><path d="M 688.652344 0.257812 L 694.175781 0.257812 L 694.175781 5.753906 L 688.652344 5.753906 Z M 688.652344 0.257812 " clip-rule="nonzero"/></clipPath><clipPath id="542121bb1f"><path d="M 667.328125 12.203125 L 684 12.203125 L 684 22 L 667.328125 22 Z M 667.328125 12.203125 " clip-rule="nonzero"/></clipPath><clipPath id="c6d7c16e22"><path d="M 1072 21 L 1087 21 L 1087 55.757812 L 1072 55.757812 Z M 1072 21 " clip-rule="nonzero"/></clipPath><clipPath id="2113f4e4bf"><path d="M 1077 0.257812 L 1082.878906 0.257812 L 1082.878906 5.753906 L 1077 5.753906 Z M 1077 0.257812 " clip-rule="nonzero"/></clipPath><clipPath id="f2d8dc54bc"><path d="M 1017 21 L 1032 21 L 1032 55.757812 L 1017 55.757812 Z M 1017 21 " clip-rule="nonzero"/></clipPath><clipPath id="da079e2939"><path d="M 1021.640625 0.257812 L 1027.628906 0.257812 L 1027.628906 5.753906 L 1021.640625 5.753906 Z M 1021.640625 0.257812 " clip-rule="nonzero"/></clipPath><clipPath id="d2770f12ea"><path d="M 961 21 L 976 21 L 976 55.757812 L 961 55.757812 Z M 961 21 " clip-rule="nonzero"/></clipPath><clipPath id="6ddce718e8"><path d="M 966 0.257812 L 971.457031 0.257812 L 971.457031 5.753906 L 966 5.753906 Z M 966 0.257812 " clip-rule="nonzero"/></clipPath><clipPath id="7be2f6da56"><path d="M 906 21 L 921 21 L 921 55.757812 L 906 55.757812 Z M 906 21 " clip-rule="nonzero"/></clipPath><clipPath id="1deb5257ae"><path d="M 910.679688 0.257812 L 916.203125 0.257812 L 916.203125 5.753906 L 910.679688 5.753906 Z M 910.679688 0.257812 " clip-rule="nonzero"/></clipPath><clipPath id="172a857de7"><path d="M 889.355469 12.203125 L 906 12.203125 L 906 22 L 889.355469 22 Z M 889.355469 12.203125 " clip-rule="nonzero"/></clipPath><clipPath id="5f3c065a0c"><path d="M 1294 21 L 1309 21 L 1309 55.757812 L 1294 55.757812 Z M 1294 21 " clip-rule="nonzero"/></clipPath><clipPath id="d6beeff8f8"><path d="M 1299 0.257812 L 1304.835938 0.257812 L 1304.835938 5.753906 L 1299 5.753906 Z M 1299 0.257812 " clip-rule="nonzero"/></clipPath><clipPath id="758611588e"><path d="M 1239 21 L 1254 21 L 1254 55.757812 L 1239 55.757812 Z M 1239 21 " clip-rule="nonzero"/></clipPath><clipPath id="b0c37c00c5"><path d="M 1243.597656 0.257812 L 1249.585938 0.257812 L 1249.585938 5.753906 L 1243.597656 5.753906 Z M 1243.597656 0.257812 " clip-rule="nonzero"/></clipPath><clipPath id="530aa41f65"><path d="M 1183 21 L 1198 21 L 1198 55.757812 L 1183 55.757812 Z M 1183 21 " clip-rule="nonzero"/></clipPath><clipPath id="6898bb642b"><path d="M 1188 0.257812 L 1193.414062 0.257812 L 1193.414062 5.753906 L 1188 5.753906 Z M 1188 0.257812 " clip-rule="nonzero"/></clipPath><clipPath id="b8c2709fd6"><path d="M 1128 21 L 1143 21 L 1143 55.757812 L 1128 55.757812 Z M 1128 21 " clip-rule="nonzero"/></clipPath><clipPath id="7458bd6b80"><path d="M 1132.636719 0.257812 L 1138.160156 0.257812 L 1138.160156 5.753906 L 1132.636719 5.753906 Z M 1132.636719 0.257812 " clip-rule="nonzero"/></clipPath><clipPath id="c30133a982"><path d="M 1111.3125 12.203125 L 1128 12.203125 L 1128 22 L 1111.3125 22 Z M 1111.3125 12.203125 " clip-rule="nonzero"/></clipPath><clipPath id="e986de9a24"><path d="M 1405 21 L 1420 21 L 1420 55.757812 L 1405 55.757812 Z M 1405 21 " clip-rule="nonzero"/></clipPath><clipPath id="ac542f7c8b"><path d="M 1410 0.257812 L 1415.441406 0.257812 L 1415.441406 5.753906 L 1410 5.753906 Z M 1410 0.257812 " clip-rule="nonzero"/></clipPath><clipPath id="51f4e987a5"><path d="M 1350 21 L 1365 21 L 1365 55.757812 L 1350 55.757812 Z M 1350 21 " clip-rule="nonzero"/></clipPath><clipPath id="7f3eb4a34a"><path d="M 1354.664062 0.257812 L 1360.191406 0.257812 L 1360.191406 5.753906 L 1354.664062 5.753906 Z M 1354.664062 0.257812 " clip-rule="nonzero"/></clipPath><clipPath id="9136722dab"><path d="M 1333.34375 12.203125 L 1350 12.203125 L 1350 22 L 1333.34375 22 Z M 1333.34375 12.203125 " clip-rule="nonzero"/></clipPath></defs><rect x="-144" width="1728" fill="#ffffff" y="-7.5" height="89.999996" fill-opacity="1"/><rect x="-144" width="1728" fill="#ffffff" y="-7.5" height="89.999996" fill-opacity="1"/><g clip-path="url(#ab323fcd89)"><path fill="#db9715" d="M 191.351562 26.789062 C 191.253906 26.667969 191.25 26.585938 191.351562 26.789062 Z M 191.394531 29.199219 C 191.519531 28.800781 191.648438 28.382812 191.792969 27.964844 C 192.460938 29.953125 192.929688 31.996094 193.261719 34.066406 C 193.699219 36.792969 194.03125 39.550781 194.140625 42.3125 C 194.234375 44.632812 194.824219 48.378906 193.554688 50.429688 C 193.050781 51.242188 191.503906 50.992188 190.648438 50.914062 C 188.757812 50.746094 189.21875 46.585938 189.199219 45.300781 C 189.285156 39.953125 189.773438 34.324219 191.394531 29.199219 Z M 189.636719 23.125 C 187.425781 25.238281 186.734375 28.988281 186.191406 31.851562 C 185.355469 36.285156 184.835938 40.785156 184.765625 45.300781 C 184.800781 48.128906 184.707031 53.019531 187.78125 54.589844 C 189.53125 55.488281 192.265625 55.757812 194.175781 55.175781 C 201.195312 53.03125 198.640625 40.363281 197.882812 35.117188 C 197.546875 32.796875 195.230469 17.789062 189.636719 23.125 " fill-opacity="1" fill-rule="nonzero"/></g><g clip-path="url(#e7d270cc02)"><path fill="#db9715" d="M 194.472656 2.660156 C 194.472656 1.195312 193.289062 0.0078125 191.824219 0.0078125 C 190.359375 0.0078125 189.175781 1.195312 189.175781 2.660156 C 189.175781 4.121094 190.359375 5.308594 191.824219 5.308594 C 193.285156 5.304688 194.472656 4.121094 194.472656 2.660156 " fill-opacity="1" fill-rule="nonzero"/></g><path fill="#db9715" d="M 196.171875 15.578125 C 196.171875 13.125 194.179688 11.136719 191.726562 11.136719 C 189.273438 11.136719 187.28125 13.125 187.28125 15.578125 C 187.28125 18.035156 189.269531 20.023438 191.726562 20.023438 C 194.179688 20.023438 196.171875 18.035156 196.171875 15.578125 " fill-opacity="1" fill-rule="nonzero"/><path fill="#db9715" d="M 170.773438 31.515625 C 166.59375 36.210938 168.222656 37.558594 170.171875 39.292969 C 172.121094 41.027344 173.652344 42.492188 177.828125 37.796875 C 182.007812 33.101562 187.257812 24.019531 185.308594 22.285156 C 183.359375 20.550781 174.949219 26.816406 170.773438 31.515625 " fill-opacity="1" fill-rule="nonzero"/><path fill="#db9715" d="M 212.996094 31.515625 C 217.171875 36.210938 215.542969 37.558594 213.597656 39.292969 C 211.644531 41.027344 210.117188 42.492188 205.9375 37.796875 C 201.757812 33.101562 196.511719 24.019531 198.460938 22.285156 C 200.40625 20.550781 208.816406 26.816406 212.996094 31.515625 " fill-opacity="1" fill-rule="nonzero"/><path fill="#db9715" d="M 172.21875 12.542969 C 167.652344 12.515625 167.695312 14.632812 167.679688 17.238281 C 167.667969 19.847656 167.597656 21.964844 172.164062 21.992188 C 176.730469 22.015625 184.203125 19.941406 184.21875 17.332031 C 184.230469 14.726562 176.785156 12.566406 172.21875 12.542969 " fill-opacity="1" fill-rule="nonzero"/><path fill="#db9715" d="M 211.546875 12.542969 C 216.117188 12.515625 216.070312 14.632812 216.085938 17.238281 C 216.101562 19.847656 216.167969 21.964844 211.605469 21.988281 C 207.035156 22.015625 199.566406 19.941406 199.550781 17.332031 C 199.539062 14.726562 206.980469 12.566406 211.546875 12.542969 " fill-opacity="1" fill-rule="nonzero"/><g clip-path="url(#eec8a47f7c)"><path fill="#db9715" d="M 136.160156 26.789062 C 136.058594 26.667969 136.054688 26.585938 136.160156 26.789062 Z M 136.203125 29.199219 C 136.328125 28.800781 136.453125 28.382812 136.597656 27.964844 C 137.265625 29.953125 137.738281 31.996094 138.066406 34.066406 C 138.503906 36.792969 138.835938 39.550781 138.949219 42.3125 C 139.042969 44.632812 139.628906 48.378906 138.363281 50.429688 C 137.859375 51.242188 136.3125 50.992188 135.453125 50.914062 C 133.5625 50.746094 134.023438 46.585938 134.003906 45.300781 C 134.089844 39.953125 134.582031 34.324219 136.203125 29.199219 Z M 134.445312 23.125 C 132.234375 25.238281 131.542969 28.988281 131 31.851562 C 130.160156 36.285156 129.640625 40.785156 129.570312 45.300781 C 129.609375 48.128906 129.511719 53.019531 132.585938 54.589844 C 134.335938 55.488281 137.070312 55.757812 138.980469 55.175781 C 146 53.03125 143.445312 40.363281 142.6875 35.117188 C 142.355469 32.796875 140.035156 17.789062 134.445312 23.125 " fill-opacity="1" fill-rule="nonzero"/></g><g clip-path="url(#c5c7a65dc4)"><path fill="#db9715" d="M 139.277344 2.660156 C 139.277344 1.195312 138.09375 0.0078125 136.628906 0.0078125 C 135.167969 0.0078125 133.980469 1.195312 133.980469 2.660156 C 133.980469 4.121094 135.167969 5.308594 136.628906 5.308594 C 138.089844 5.304688 139.277344 4.121094 139.277344 2.660156 " fill-opacity="1" fill-rule="nonzero"/></g><path fill="#db9715" d="M 140.976562 15.578125 C 140.976562 13.125 138.988281 11.136719 136.53125 11.136719 C 134.078125 11.136719 132.089844 13.125 132.089844 15.578125 C 132.089844 18.035156 134.078125 20.023438 136.53125 20.023438 C 138.988281 20.023438 140.976562 18.035156 140.976562 15.578125 " fill-opacity="1" fill-rule="nonzero"/><path fill="#db9715" d="M 115.578125 31.515625 C 111.398438 36.210938 113.027344 37.558594 114.976562 39.292969 C 116.929688 41.027344 118.457031 42.492188 122.636719 37.796875 C 126.816406 33.101562 132.066406 24.019531 130.113281 22.285156 C 128.164062 20.550781 119.757812 26.816406 115.578125 31.515625 " fill-opacity="1" fill-rule="nonzero"/><path fill="#db9715" d="M 157.800781 31.515625 C 161.980469 36.210938 160.347656 37.558594 158.402344 39.292969 C 156.453125 41.027344 154.925781 42.492188 150.746094 37.796875 C 146.5625 33.101562 141.316406 24.019531 143.265625 22.285156 C 145.214844 20.550781 153.621094 26.816406 157.800781 31.515625 " fill-opacity="1" fill-rule="nonzero"/><path fill="#db9715" d="M 117.023438 12.542969 C 112.457031 12.515625 112.503906 14.632812 112.484375 17.238281 C 112.472656 19.847656 112.402344 21.964844 116.96875 21.992188 C 121.535156 22.015625 129.007812 19.941406 129.023438 17.332031 C 129.035156 14.726562 121.59375 12.566406 117.023438 12.542969 " fill-opacity="1" fill-rule="nonzero"/><path fill="#db9715" d="M 156.355469 12.542969 C 160.921875 12.515625 160.878906 14.632812 160.890625 17.238281 C 160.90625 19.847656 160.976562 21.964844 156.410156 21.988281 C 151.839844 22.015625 144.371094 19.941406 144.355469 17.332031 C 144.34375 14.726562 151.789062 12.566406 156.355469 12.542969 " fill-opacity="1" fill-rule="nonzero"/><g clip-path="url(#18ae52f6df)"><path fill="#db9715" d="M 80.253906 26.789062 C 80.15625 26.667969 80.148438 26.585938 80.253906 26.789062 Z M 80.296875 29.199219 C 80.421875 28.800781 80.546875 28.382812 80.691406 27.964844 C 81.359375 29.953125 81.832031 31.996094 82.164062 34.066406 C 82.597656 36.792969 82.929688 39.550781 83.039062 42.3125 C 83.136719 44.632812 83.722656 48.378906 82.457031 50.429688 C 81.953125 51.242188 80.40625 50.992188 79.550781 50.914062 C 77.65625 50.746094 78.117188 46.585938 78.097656 45.300781 C 78.183594 39.953125 78.675781 34.324219 80.296875 29.199219 Z M 78.539062 23.125 C 76.324219 25.238281 75.636719 28.988281 75.09375 31.851562 C 74.253906 36.285156 73.734375 40.785156 73.664062 45.300781 C 73.703125 48.128906 73.605469 53.019531 76.679688 54.589844 C 78.429688 55.488281 81.164062 55.757812 83.074219 55.175781 C 90.097656 53.03125 87.539062 40.363281 86.78125 35.117188 C 86.449219 32.796875 84.128906 17.789062 78.539062 23.125 " fill-opacity="1" fill-rule="nonzero"/></g><g clip-path="url(#12e96b05c3)"><path fill="#db9715" d="M 83.371094 2.660156 C 83.375 1.195312 82.1875 0.0078125 80.722656 0.0078125 C 79.261719 0.0078125 78.074219 1.195312 78.074219 2.660156 C 78.074219 4.121094 79.261719 5.308594 80.722656 5.308594 C 82.1875 5.304688 83.371094 4.121094 83.371094 2.660156 " fill-opacity="1" fill-rule="nonzero"/></g><path fill="#db9715" d="M 85.070312 15.578125 C 85.070312 13.125 83.082031 11.136719 80.625 11.136719 C 78.171875 11.136719 76.183594 13.125 76.183594 15.578125 C 76.183594 18.035156 78.171875 20.023438 80.625 20.023438 C 83.082031 20.023438 85.074219 18.035156 85.070312 15.578125 " fill-opacity="1" fill-rule="nonzero"/><path fill="#db9715" d="M 59.671875 31.515625 C 55.492188 36.210938 57.121094 37.558594 59.070312 39.292969 C 61.023438 41.027344 62.550781 42.492188 66.730469 37.796875 C 70.910156 33.101562 76.160156 24.019531 74.207031 22.285156 C 72.257812 20.550781 63.851562 26.816406 59.671875 31.515625 " fill-opacity="1" fill-rule="nonzero"/><path fill="#db9715" d="M 101.894531 31.515625 C 106.074219 36.210938 104.441406 37.558594 102.496094 39.292969 C 100.546875 41.027344 99.015625 42.492188 94.839844 37.796875 C 90.65625 33.101562 85.410156 24.019531 87.359375 22.285156 C 89.308594 20.550781 97.714844 26.816406 101.894531 31.515625 " fill-opacity="1" fill-rule="nonzero"/><path fill="#db9715" d="M 61.117188 12.542969 C 56.554688 12.515625 56.597656 14.632812 56.578125 17.238281 C 56.566406 19.847656 56.496094 21.964844 61.0625 21.992188 C 65.628906 22.015625 73.101562 19.941406 73.117188 17.332031 C 73.128906 14.726562 65.6875 12.566406 61.117188 12.542969 " fill-opacity="1" fill-rule="nonzero"/><path fill="#db9715" d="M 100.449219 12.542969 C 105.015625 12.515625 104.972656 14.632812 104.984375 17.238281 C 105 19.847656 105.070312 21.964844 100.503906 21.988281 C 95.9375 22.015625 88.46875 19.941406 88.449219 17.332031 C 88.4375 14.726562 95.882812 12.566406 100.449219 12.542969 " fill-opacity="1" fill-rule="nonzero"/><g clip-path="url(#45fa0d0b01)"><path fill="#db9715" d="M 25.058594 26.789062 C 24.960938 26.667969 24.957031 26.585938 25.058594 26.789062 Z M 25.101562 29.199219 C 25.226562 28.800781 25.351562 28.382812 25.5 27.964844 C 26.167969 29.953125 26.636719 31.996094 26.96875 34.066406 C 27.40625 36.792969 27.738281 39.550781 27.847656 42.3125 C 27.941406 44.632812 28.53125 48.378906 27.261719 50.429688 C 26.757812 51.242188 25.210938 50.992188 24.355469 50.914062 C 22.464844 50.746094 22.921875 46.585938 22.90625 45.300781 C 22.988281 39.953125 23.480469 34.324219 25.101562 29.199219 Z M 23.34375 23.125 C 21.132812 25.238281 20.441406 28.988281 19.898438 31.851562 C 19.058594 36.285156 18.542969 40.785156 18.472656 45.300781 C 18.511719 48.128906 18.414062 53.019531 21.488281 54.589844 C 23.238281 55.488281 25.96875 55.757812 27.882812 55.175781 C 34.902344 53.03125 32.347656 40.363281 31.589844 35.117188 C 31.253906 32.796875 28.9375 17.789062 23.34375 23.125 " fill-opacity="1" fill-rule="nonzero"/></g><g clip-path="url(#384185d010)"><path fill="#db9715" d="M 28.179688 2.660156 C 28.179688 1.195312 26.992188 0.0078125 25.53125 0.0078125 C 24.066406 0.0078125 22.882812 1.195312 22.878906 2.660156 C 22.878906 4.121094 24.066406 5.308594 25.53125 5.308594 C 26.992188 5.304688 28.179688 4.121094 28.179688 2.660156 " fill-opacity="1" fill-rule="nonzero"/></g><path fill="#db9715" d="M 29.875 15.578125 C 29.875 13.125 27.886719 11.136719 25.429688 11.136719 C 22.980469 11.136719 20.988281 13.125 20.988281 15.578125 C 20.988281 18.035156 22.976562 20.023438 25.429688 20.023438 C 27.886719 20.023438 29.878906 18.035156 29.875 15.578125 " fill-opacity="1" fill-rule="nonzero"/><path fill="#db9715" d="M 4.480469 31.515625 C 0.300781 36.210938 1.929688 37.558594 3.878906 39.292969 C 5.828125 41.027344 7.355469 42.492188 11.535156 37.796875 C 15.714844 33.101562 20.964844 24.019531 19.011719 22.285156 C 17.066406 20.550781 8.65625 26.816406 4.480469 31.515625 " fill-opacity="1" fill-rule="nonzero"/><path fill="#db9715" d="M 46.703125 31.515625 C 50.878906 36.210938 49.25 37.558594 47.304688 39.292969 C 45.351562 41.027344 43.824219 42.492188 39.644531 37.796875 C 35.464844 33.101562 30.214844 24.019531 32.167969 22.285156 C 34.113281 20.550781 42.523438 26.816406 46.703125 31.515625 " fill-opacity="1" fill-rule="nonzero"/><g clip-path="url(#76f86b9988)"><path fill="#db9715" d="M 5.921875 12.542969 C 1.359375 12.515625 1.402344 14.632812 1.386719 17.238281 C 1.375 19.847656 1.304688 21.964844 5.871094 21.992188 C 10.4375 22.015625 17.910156 19.941406 17.921875 17.332031 C 17.9375 14.726562 10.492188 12.566406 5.921875 12.542969 " fill-opacity="1" fill-rule="nonzero"/></g><path fill="#db9715" d="M 45.253906 12.542969 C 49.824219 12.515625 49.777344 14.632812 49.792969 17.238281 C 49.804688 19.847656 49.875 21.964844 45.308594 21.988281 C 40.742188 22.015625 33.273438 19.941406 33.257812 17.332031 C 33.242188 14.726562 40.691406 12.566406 45.253906 12.542969 " fill-opacity="1" fill-rule="nonzero"/><g clip-path="url(#9c04ed5e23)"><path fill="#db9715" d="M 413.308594 26.789062 C 413.210938 26.667969 413.207031 26.585938 413.308594 26.789062 Z M 413.351562 29.199219 C 413.476562 28.800781 413.605469 28.382812 413.75 27.964844 C 414.417969 29.953125 414.886719 31.996094 415.21875 34.066406 C 415.65625 36.792969 415.988281 39.550781 416.097656 42.3125 C 416.191406 44.632812 416.78125 48.378906 415.511719 50.429688 C 415.007812 51.242188 413.460938 50.992188 412.605469 50.914062 C 410.714844 50.746094 411.175781 46.585938 411.15625 45.300781 C 411.242188 39.953125 411.730469 34.324219 413.351562 29.199219 Z M 411.59375 23.125 C 409.382812 25.238281 408.691406 28.988281 408.148438 31.851562 C 407.3125 36.285156 406.792969 40.785156 406.722656 45.300781 C 406.757812 48.128906 406.664062 53.019531 409.738281 54.589844 C 411.488281 55.488281 414.222656 55.757812 416.132812 55.175781 C 423.152344 53.03125 420.597656 40.363281 419.839844 35.117188 C 419.503906 32.796875 417.1875 17.789062 411.59375 23.125 " fill-opacity="1" fill-rule="nonzero"/></g><g clip-path="url(#7fda2fb4d6)"><path fill="#db9715" d="M 416.429688 2.660156 C 416.429688 1.195312 415.246094 0.0078125 413.78125 0.0078125 C 412.316406 0.0078125 411.132812 1.195312 411.132812 2.660156 C 411.132812 4.121094 412.316406 5.308594 413.78125 5.308594 C 415.242188 5.304688 416.429688 4.121094 416.429688 2.660156 " fill-opacity="1" fill-rule="nonzero"/></g><path fill="#db9715" d="M 418.128906 15.578125 C 418.128906 13.125 416.136719 11.136719 413.683594 11.136719 C 411.230469 11.136719 409.238281 13.125 409.238281 15.578125 C 409.238281 18.035156 411.226562 20.023438 413.683594 20.023438 C 416.136719 20.023438 418.128906 18.035156 418.128906 15.578125 " fill-opacity="1" fill-rule="nonzero"/><path fill="#db9715" d="M 392.730469 31.515625 C 388.550781 36.210938 390.179688 37.558594 392.128906 39.292969 C 394.078125 41.027344 395.609375 42.492188 399.785156 37.796875 C 403.964844 33.101562 409.214844 24.019531 407.265625 22.285156 C 405.316406 20.550781 396.90625 26.816406 392.730469 31.515625 " fill-opacity="1" fill-rule="nonzero"/><path fill="#db9715" d="M 434.953125 31.515625 C 439.128906 36.210938 437.5 37.558594 435.554688 39.292969 C 433.601562 41.027344 432.074219 42.492188 427.894531 37.796875 C 423.714844 33.101562 418.46875 24.019531 420.417969 22.285156 C 422.363281 20.550781 430.773438 26.816406 434.953125 31.515625 " fill-opacity="1" fill-rule="nonzero"/><path fill="#db9715" d="M 394.175781 12.542969 C 389.609375 12.515625 389.652344 14.632812 389.636719 17.238281 C 389.625 19.847656 389.554688 21.964844 394.121094 21.992188 C 398.6875 22.015625 406.160156 19.941406 406.175781 17.332031 C 406.1875 14.726562 398.742188 12.566406 394.175781 12.542969 " fill-opacity="1" fill-rule="nonzero"/><path fill="#db9715" d="M 433.503906 12.542969 C 438.074219 12.515625 438.027344 14.632812 438.042969 17.238281 C 438.058594 19.847656 438.125 21.964844 433.5625 21.988281 C 428.992188 22.015625 421.523438 19.941406 421.507812 17.332031 C 421.496094 14.726562 428.9375 12.566406 433.503906 12.542969 " fill-opacity="1" fill-rule="nonzero"/><g clip-path="url(#f6546a7fad)"><path fill="#db9715" d="M 358.117188 26.789062 C 358.015625 26.667969 358.011719 26.585938 358.117188 26.789062 Z M 358.160156 29.199219 C 358.285156 28.800781 358.410156 28.382812 358.554688 27.964844 C 359.222656 29.953125 359.695312 31.996094 360.023438 34.066406 C 360.460938 36.792969 360.792969 39.550781 360.90625 42.3125 C 361 44.632812 361.585938 48.378906 360.320312 50.429688 C 359.816406 51.242188 358.269531 50.992188 357.410156 50.914062 C 355.519531 50.746094 355.980469 46.585938 355.960938 45.300781 C 356.046875 39.953125 356.539062 34.324219 358.160156 29.199219 Z M 356.402344 23.125 C 354.191406 25.238281 353.5 28.988281 352.957031 31.851562 C 352.117188 36.285156 351.597656 40.785156 351.527344 45.300781 C 351.566406 48.128906 351.46875 53.019531 354.542969 54.589844 C 356.292969 55.488281 359.027344 55.757812 360.9375 55.175781 C 367.957031 53.03125 365.402344 40.363281 364.644531 35.117188 C 364.3125 32.796875 361.992188 17.789062 356.402344 23.125 " fill-opacity="1" fill-rule="nonzero"/></g><g clip-path="url(#5aa4eff2d6)"><path fill="#db9715" d="M 361.234375 2.660156 C 361.234375 1.195312 360.050781 0.0078125 358.585938 0.0078125 C 357.125 0.0078125 355.9375 1.195312 355.9375 2.660156 C 355.9375 4.121094 357.125 5.308594 358.585938 5.308594 C 360.046875 5.304688 361.234375 4.121094 361.234375 2.660156 " fill-opacity="1" fill-rule="nonzero"/></g><path fill="#db9715" d="M 362.933594 15.578125 C 362.933594 13.125 360.945312 11.136719 358.488281 11.136719 C 356.035156 11.136719 354.046875 13.125 354.046875 15.578125 C 354.046875 18.035156 356.035156 20.023438 358.488281 20.023438 C 360.945312 20.023438 362.933594 18.035156 362.933594 15.578125 " fill-opacity="1" fill-rule="nonzero"/><path fill="#db9715" d="M 337.535156 31.515625 C 333.355469 36.210938 334.984375 37.558594 336.933594 39.292969 C 338.886719 41.027344 340.414062 42.492188 344.59375 37.796875 C 348.773438 33.101562 354.023438 24.019531 352.070312 22.285156 C 350.121094 20.550781 341.714844 26.816406 337.535156 31.515625 " fill-opacity="1" fill-rule="nonzero"/><path fill="#db9715" d="M 379.757812 31.515625 C 383.9375 36.210938 382.304688 37.558594 380.359375 39.292969 C 378.410156 41.027344 376.882812 42.492188 372.703125 37.796875 C 368.519531 33.101562 363.273438 24.019531 365.222656 22.285156 C 367.171875 20.550781 375.578125 26.816406 379.757812 31.515625 " fill-opacity="1" fill-rule="nonzero"/><path fill="#db9715" d="M 338.980469 12.542969 C 334.414062 12.515625 334.460938 14.632812 334.441406 17.238281 C 334.429688 19.847656 334.359375 21.964844 338.925781 21.992188 C 343.492188 22.015625 350.964844 19.941406 350.980469 17.332031 C 350.992188 14.726562 343.550781 12.566406 338.980469 12.542969 " fill-opacity="1" fill-rule="nonzero"/><path fill="#db9715" d="M 378.3125 12.542969 C 382.878906 12.515625 382.835938 14.632812 382.847656 17.238281 C 382.863281 19.847656 382.929688 21.964844 378.367188 21.988281 C 373.796875 22.015625 366.328125 19.941406 366.3125 17.332031 C 366.300781 14.726562 373.746094 12.566406 378.3125 12.542969 " fill-opacity="1" fill-rule="nonzero"/><g clip-path="url(#ed3d5086c4)"><path fill="#db9715" d="M 302.210938 26.789062 C 302.113281 26.667969 302.105469 26.585938 302.210938 26.789062 Z M 302.253906 29.199219 C 302.378906 28.800781 302.503906 28.382812 302.648438 27.964844 C 303.316406 29.953125 303.789062 31.996094 304.121094 34.066406 C 304.554688 36.792969 304.886719 39.550781 304.996094 42.3125 C 305.09375 44.632812 305.679688 48.378906 304.414062 50.429688 C 303.910156 51.242188 302.363281 50.992188 301.507812 50.914062 C 299.613281 50.746094 300.074219 46.585938 300.054688 45.300781 C 300.140625 39.953125 300.632812 34.324219 302.253906 29.199219 Z M 300.496094 23.125 C 298.28125 25.238281 297.59375 28.988281 297.050781 31.851562 C 296.210938 36.285156 295.691406 40.785156 295.621094 45.300781 C 295.660156 48.128906 295.5625 53.019531 298.636719 54.589844 C 300.386719 55.488281 303.121094 55.757812 305.03125 55.175781 C 312.050781 53.03125 309.496094 40.363281 308.738281 35.117188 C 308.40625 32.796875 306.085938 17.789062 300.496094 23.125 " fill-opacity="1" fill-rule="nonzero"/></g><g clip-path="url(#9780cca87a)"><path fill="#db9715" d="M 305.328125 2.660156 C 305.332031 1.195312 304.144531 0.0078125 302.679688 0.0078125 C 301.21875 0.0078125 300.03125 1.195312 300.03125 2.660156 C 300.03125 4.121094 301.21875 5.308594 302.679688 5.308594 C 304.144531 5.304688 305.328125 4.121094 305.328125 2.660156 " fill-opacity="1" fill-rule="nonzero"/></g><path fill="#db9715" d="M 307.027344 15.578125 C 307.027344 13.125 305.039062 11.136719 302.582031 11.136719 C 300.128906 11.136719 298.140625 13.125 298.140625 15.578125 C 298.140625 18.035156 300.128906 20.023438 302.582031 20.023438 C 305.039062 20.023438 307.03125 18.035156 307.027344 15.578125 " fill-opacity="1" fill-rule="nonzero"/><path fill="#db9715" d="M 281.628906 31.515625 C 277.449219 36.210938 279.078125 37.558594 281.027344 39.292969 C 282.980469 41.027344 284.507812 42.492188 288.6875 37.796875 C 292.867188 33.101562 298.117188 24.019531 296.164062 22.285156 C 294.214844 20.550781 285.808594 26.816406 281.628906 31.515625 " fill-opacity="1" fill-rule="nonzero"/><path fill="#db9715" d="M 323.851562 31.515625 C 328.03125 36.210938 326.398438 37.558594 324.453125 39.292969 C 322.503906 41.027344 320.972656 42.492188 316.796875 37.796875 C 312.613281 33.101562 307.367188 24.019531 309.316406 22.285156 C 311.265625 20.550781 319.671875 26.816406 323.851562 31.515625 " fill-opacity="1" fill-rule="nonzero"/><path fill="#db9715" d="M 283.074219 12.542969 C 278.511719 12.515625 278.554688 14.632812 278.535156 17.238281 C 278.523438 19.847656 278.453125 21.964844 283.019531 21.992188 C 287.585938 22.015625 295.058594 19.941406 295.074219 17.332031 C 295.085938 14.726562 287.644531 12.566406 283.074219 12.542969 " fill-opacity="1" fill-rule="nonzero"/><path fill="#db9715" d="M 322.40625 12.542969 C 326.972656 12.515625 326.929688 14.632812 326.941406 17.238281 C 326.957031 19.847656 327.027344 21.964844 322.460938 21.988281 C 317.894531 22.015625 310.425781 19.941406 310.40625 17.332031 C 310.394531 14.726562 317.839844 12.566406 322.40625 12.542969 " fill-opacity="1" fill-rule="nonzero"/><g clip-path="url(#ae816e7be9)"><path fill="#db9715" d="M 247.015625 26.789062 C 246.917969 26.667969 246.914062 26.585938 247.015625 26.789062 Z M 247.058594 29.199219 C 247.183594 28.800781 247.308594 28.382812 247.457031 27.964844 C 248.125 29.953125 248.59375 31.996094 248.925781 34.066406 C 249.363281 36.792969 249.695312 39.550781 249.804688 42.3125 C 249.898438 44.632812 250.488281 48.378906 249.21875 50.429688 C 248.714844 51.242188 247.167969 50.992188 246.3125 50.914062 C 244.421875 50.746094 244.878906 46.585938 244.863281 45.300781 C 244.945312 39.953125 245.4375 34.324219 247.058594 29.199219 Z M 245.300781 23.125 C 243.089844 25.238281 242.398438 28.988281 241.855469 31.851562 C 241.015625 36.285156 240.5 40.785156 240.429688 45.300781 C 240.46875 48.128906 240.371094 53.019531 243.445312 54.589844 C 245.195312 55.488281 247.925781 55.757812 249.839844 55.175781 C 256.859375 53.03125 254.304688 40.363281 253.546875 35.117188 C 253.210938 32.796875 250.894531 17.789062 245.300781 23.125 " fill-opacity="1" fill-rule="nonzero"/></g><g clip-path="url(#9a90cacf7c)"><path fill="#db9715" d="M 250.136719 2.660156 C 250.136719 1.195312 248.949219 0.0078125 247.488281 0.0078125 C 246.023438 0.0078125 244.839844 1.195312 244.835938 2.660156 C 244.835938 4.121094 246.023438 5.308594 247.488281 5.308594 C 248.949219 5.304688 250.136719 4.121094 250.136719 2.660156 " fill-opacity="1" fill-rule="nonzero"/></g><path fill="#db9715" d="M 251.832031 15.578125 C 251.832031 13.125 249.84375 11.136719 247.386719 11.136719 C 244.9375 11.136719 242.945312 13.125 242.945312 15.578125 C 242.945312 18.035156 244.933594 20.023438 247.386719 20.023438 C 249.84375 20.023438 251.835938 18.035156 251.832031 15.578125 " fill-opacity="1" fill-rule="nonzero"/><path fill="#db9715" d="M 226.4375 31.515625 C 222.257812 36.210938 223.886719 37.558594 225.835938 39.292969 C 227.785156 41.027344 229.3125 42.492188 233.492188 37.796875 C 237.671875 33.101562 242.921875 24.019531 240.96875 22.285156 C 239.023438 20.550781 230.613281 26.816406 226.4375 31.515625 " fill-opacity="1" fill-rule="nonzero"/><path fill="#db9715" d="M 268.660156 31.515625 C 272.835938 36.210938 271.207031 37.558594 269.261719 39.292969 C 267.308594 41.027344 265.78125 42.492188 261.601562 37.796875 C 257.421875 33.101562 252.171875 24.019531 254.125 22.285156 C 256.070312 20.550781 264.480469 26.816406 268.660156 31.515625 " fill-opacity="1" fill-rule="nonzero"/><g clip-path="url(#1b3b5e098a)"><path fill="#db9715" d="M 227.878906 12.542969 C 223.316406 12.515625 223.359375 14.632812 223.34375 17.238281 C 223.332031 19.847656 223.261719 21.964844 227.828125 21.992188 C 232.394531 22.015625 239.867188 19.941406 239.878906 17.332031 C 239.894531 14.726562 232.449219 12.566406 227.878906 12.542969 " fill-opacity="1" fill-rule="nonzero"/></g><path fill="#db9715" d="M 267.210938 12.542969 C 271.78125 12.515625 271.734375 14.632812 271.75 17.238281 C 271.761719 19.847656 271.832031 21.964844 267.265625 21.988281 C 262.699219 22.015625 255.230469 19.941406 255.214844 17.332031 C 255.199219 14.726562 262.648438 12.566406 267.210938 12.542969 " fill-opacity="1" fill-rule="nonzero"/><g clip-path="url(#181801810c)"><path fill="#db9715" d="M 635.335938 26.789062 C 635.242188 26.667969 635.234375 26.585938 635.335938 26.789062 Z M 635.382812 29.199219 C 635.507812 28.800781 635.632812 28.382812 635.777344 27.964844 C 636.445312 29.953125 636.917969 31.996094 637.246094 34.066406 C 637.683594 36.792969 638.015625 39.550781 638.128906 42.3125 C 638.222656 44.632812 638.808594 48.378906 637.539062 50.429688 C 637.039062 51.242188 635.492188 50.992188 634.632812 50.914062 C 632.742188 50.746094 633.203125 46.585938 633.183594 45.300781 C 633.269531 39.953125 633.761719 34.324219 635.382812 29.199219 Z M 633.625 23.125 C 631.414062 25.238281 630.722656 28.988281 630.175781 31.851562 C 629.339844 36.285156 628.820312 40.785156 628.75 45.300781 C 628.789062 48.128906 628.691406 53.019531 631.765625 54.589844 C 633.515625 55.488281 636.25 55.757812 638.160156 55.175781 C 645.179688 53.03125 642.625 40.363281 641.867188 35.117188 C 641.535156 32.796875 639.214844 17.789062 633.625 23.125 " fill-opacity="1" fill-rule="nonzero"/></g><g clip-path="url(#9d85b36865)"><path fill="#db9715" d="M 638.457031 2.660156 C 638.457031 1.195312 637.273438 0.0078125 635.808594 0.0078125 C 634.347656 0.0078125 633.160156 1.195312 633.160156 2.660156 C 633.160156 4.121094 634.347656 5.308594 635.808594 5.308594 C 637.269531 5.304688 638.457031 4.121094 638.457031 2.660156 " fill-opacity="1" fill-rule="nonzero"/></g><path fill="#db9715" d="M 640.15625 15.578125 C 640.15625 13.125 638.167969 11.136719 635.710938 11.136719 C 633.257812 11.136719 631.269531 13.125 631.269531 15.578125 C 631.269531 18.035156 633.257812 20.023438 635.710938 20.023438 C 638.167969 20.023438 640.15625 18.035156 640.15625 15.578125 " fill-opacity="1" fill-rule="nonzero"/><path fill="#db9715" d="M 614.757812 31.515625 C 610.578125 36.210938 612.207031 37.558594 614.15625 39.292969 C 616.109375 41.027344 617.636719 42.492188 621.8125 37.796875 C 625.996094 33.101562 631.246094 24.019531 629.292969 22.285156 C 627.34375 20.550781 618.9375 26.816406 614.757812 31.515625 " fill-opacity="1" fill-rule="nonzero"/><path fill="#db9715" d="M 656.980469 31.515625 C 661.160156 36.210938 659.527344 37.558594 657.582031 39.292969 C 655.628906 41.027344 654.105469 42.492188 649.925781 37.796875 C 645.742188 33.101562 640.496094 24.019531 642.445312 22.285156 C 644.394531 20.550781 652.800781 26.816406 656.980469 31.515625 " fill-opacity="1" fill-rule="nonzero"/><path fill="#db9715" d="M 616.203125 12.542969 C 611.636719 12.515625 611.679688 14.632812 611.664062 17.238281 C 611.652344 19.847656 611.582031 21.964844 616.148438 21.992188 C 620.714844 22.015625 628.1875 19.941406 628.203125 17.332031 C 628.214844 14.726562 620.769531 12.566406 616.203125 12.542969 " fill-opacity="1" fill-rule="nonzero"/><path fill="#db9715" d="M 655.535156 12.542969 C 660.101562 12.515625 660.058594 14.632812 660.070312 17.238281 C 660.085938 19.847656 660.152344 21.964844 655.589844 21.988281 C 651.019531 22.015625 643.550781 19.941406 643.539062 17.332031 C 643.523438 14.726562 650.96875 12.566406 655.535156 12.542969 " fill-opacity="1" fill-rule="nonzero"/><g clip-path="url(#8e52ae4cfe)"><path fill="#db9715" d="M 580.144531 26.789062 C 580.046875 26.667969 580.042969 26.585938 580.144531 26.789062 Z M 580.1875 29.199219 C 580.3125 28.800781 580.4375 28.382812 580.585938 27.964844 C 581.25 29.953125 581.722656 31.996094 582.054688 34.066406 C 582.492188 36.792969 582.820312 39.550781 582.933594 42.3125 C 583.027344 44.632812 583.613281 48.378906 582.347656 50.429688 C 581.84375 51.242188 580.296875 50.992188 579.441406 50.914062 C 577.546875 50.746094 578.007812 46.585938 577.992188 45.300781 C 578.074219 39.953125 578.566406 34.324219 580.1875 29.199219 Z M 578.429688 23.125 C 576.21875 25.238281 575.527344 28.988281 574.984375 31.851562 C 574.144531 36.285156 573.628906 40.785156 573.558594 45.300781 C 573.59375 48.128906 573.5 53.019531 576.570312 54.589844 C 578.320312 55.488281 581.058594 55.757812 582.96875 55.175781 C 589.988281 53.03125 587.429688 40.363281 586.675781 35.117188 C 586.339844 32.796875 584.023438 17.789062 578.429688 23.125 " fill-opacity="1" fill-rule="nonzero"/></g><g clip-path="url(#d33c26770d)"><path fill="#db9715" d="M 583.265625 2.660156 C 583.265625 1.195312 582.078125 0.0078125 580.613281 0.0078125 C 579.152344 0.0078125 577.96875 1.195312 577.964844 2.660156 C 577.964844 4.121094 579.152344 5.308594 580.613281 5.308594 C 582.078125 5.304688 583.265625 4.121094 583.265625 2.660156 " fill-opacity="1" fill-rule="nonzero"/></g><path fill="#db9715" d="M 584.960938 15.578125 C 584.960938 13.125 582.972656 11.136719 580.519531 11.136719 C 578.066406 11.136719 576.074219 13.125 576.074219 15.578125 C 576.074219 18.035156 578.0625 20.023438 580.519531 20.023438 C 582.972656 20.023438 584.964844 18.035156 584.960938 15.578125 " fill-opacity="1" fill-rule="nonzero"/><path fill="#db9715" d="M 559.566406 31.515625 C 555.386719 36.210938 557.015625 37.558594 558.960938 39.292969 C 560.914062 41.027344 562.441406 42.492188 566.621094 37.796875 C 570.800781 33.101562 576.050781 24.019531 574.097656 22.285156 C 572.152344 20.550781 563.742188 26.816406 559.566406 31.515625 " fill-opacity="1" fill-rule="nonzero"/><path fill="#db9715" d="M 601.789062 31.515625 C 605.964844 36.210938 604.335938 37.558594 602.386719 39.292969 C 600.4375 41.027344 598.910156 42.492188 594.730469 37.796875 C 590.546875 33.101562 585.300781 24.019531 587.25 22.285156 C 589.199219 20.550781 597.609375 26.816406 601.789062 31.515625 " fill-opacity="1" fill-rule="nonzero"/><path fill="#db9715" d="M 561.007812 12.542969 C 556.445312 12.515625 556.488281 14.632812 556.472656 17.238281 C 556.457031 19.847656 556.390625 21.964844 560.957031 21.992188 C 565.523438 22.015625 572.996094 19.941406 573.007812 17.332031 C 573.023438 14.726562 565.578125 12.566406 561.007812 12.542969 " fill-opacity="1" fill-rule="nonzero"/><path fill="#db9715" d="M 600.339844 12.542969 C 604.90625 12.515625 604.863281 14.632812 604.878906 17.238281 C 604.890625 19.847656 604.960938 21.964844 600.394531 21.988281 C 595.828125 22.015625 588.359375 19.941406 588.339844 17.332031 C 588.328125 14.726562 595.773438 12.566406 600.339844 12.542969 " fill-opacity="1" fill-rule="nonzero"/><g clip-path="url(#784767f42e)"><path fill="#db9715" d="M 524.238281 26.789062 C 524.140625 26.667969 524.136719 26.585938 524.238281 26.789062 Z M 524.28125 29.199219 C 524.40625 28.800781 524.53125 28.382812 524.679688 27.964844 C 525.347656 29.953125 525.816406 31.996094 526.148438 34.066406 C 526.585938 36.792969 526.914062 39.550781 527.027344 42.3125 C 527.121094 44.632812 527.710938 48.378906 526.441406 50.429688 C 525.9375 51.242188 524.390625 50.992188 523.535156 50.914062 C 521.644531 50.746094 522.101562 46.585938 522.085938 45.300781 C 522.167969 39.953125 522.660156 34.324219 524.28125 29.199219 Z M 522.523438 23.125 C 520.3125 25.238281 519.621094 28.988281 519.078125 31.851562 C 518.238281 36.285156 517.722656 40.785156 517.652344 45.300781 C 517.6875 48.128906 517.59375 53.019531 520.664062 54.589844 C 522.414062 55.488281 525.148438 55.757812 527.0625 55.175781 C 534.082031 53.03125 531.527344 40.363281 530.769531 35.117188 C 530.433594 32.796875 528.117188 17.789062 522.523438 23.125 " fill-opacity="1" fill-rule="nonzero"/></g><g clip-path="url(#dc150508fd)"><path fill="#db9715" d="M 527.359375 2.660156 C 527.359375 1.195312 526.171875 0.0078125 524.710938 0.0078125 C 523.246094 0.0078125 522.0625 1.195312 522.058594 2.660156 C 522.058594 4.121094 523.246094 5.308594 524.710938 5.308594 C 526.171875 5.304688 527.359375 4.121094 527.359375 2.660156 " fill-opacity="1" fill-rule="nonzero"/></g><path fill="#db9715" d="M 529.054688 15.578125 C 529.054688 13.125 527.066406 11.136719 524.609375 11.136719 C 522.160156 11.136719 520.167969 13.125 520.167969 15.578125 C 520.167969 18.035156 522.15625 20.023438 524.609375 20.023438 C 527.066406 20.023438 529.058594 18.035156 529.054688 15.578125 " fill-opacity="1" fill-rule="nonzero"/><path fill="#db9715" d="M 503.660156 31.515625 C 499.480469 36.210938 501.109375 37.558594 503.054688 39.292969 C 505.007812 41.027344 506.535156 42.492188 510.714844 37.796875 C 514.894531 33.101562 520.144531 24.019531 518.191406 22.285156 C 516.246094 20.550781 507.835938 26.816406 503.660156 31.515625 " fill-opacity="1" fill-rule="nonzero"/><path fill="#db9715" d="M 545.882812 31.515625 C 550.058594 36.210938 548.429688 37.558594 546.480469 39.292969 C 544.53125 41.027344 543.003906 42.492188 538.824219 37.796875 C 534.640625 33.101562 529.394531 24.019531 531.34375 22.285156 C 533.292969 20.550781 541.703125 26.816406 545.882812 31.515625 " fill-opacity="1" fill-rule="nonzero"/><path fill="#db9715" d="M 505.101562 12.542969 C 500.539062 12.515625 500.582031 14.632812 500.566406 17.238281 C 500.554688 19.847656 500.484375 21.964844 505.050781 21.992188 C 509.617188 22.015625 517.089844 19.941406 517.101562 17.332031 C 517.117188 14.726562 509.671875 12.566406 505.101562 12.542969 " fill-opacity="1" fill-rule="nonzero"/><path fill="#db9715" d="M 544.433594 12.542969 C 549.003906 12.515625 548.957031 14.632812 548.972656 17.238281 C 548.984375 19.847656 549.054688 21.964844 544.488281 21.988281 C 539.921875 22.015625 532.453125 19.941406 532.4375 17.332031 C 532.421875 14.726562 539.867188 12.566406 544.433594 12.542969 " fill-opacity="1" fill-rule="nonzero"/><g clip-path="url(#749258de9c)"><path fill="#db9715" d="M 469.042969 26.789062 C 468.945312 26.667969 468.941406 26.585938 469.042969 26.789062 Z M 469.085938 29.199219 C 469.214844 28.800781 469.339844 28.382812 469.484375 27.964844 C 470.152344 29.953125 470.625 31.996094 470.953125 34.066406 C 471.390625 36.792969 471.722656 39.550781 471.832031 42.3125 C 471.925781 44.632812 472.515625 48.378906 471.246094 50.429688 C 470.742188 51.242188 469.195312 50.992188 468.339844 50.914062 C 466.449219 50.746094 466.90625 46.585938 466.890625 45.300781 C 466.976562 39.953125 467.464844 34.324219 469.085938 29.199219 Z M 467.332031 23.125 C 465.117188 25.238281 464.425781 28.988281 463.882812 31.851562 C 463.046875 36.285156 462.527344 40.785156 462.457031 45.300781 C 462.496094 48.128906 462.398438 53.019531 465.472656 54.589844 C 467.222656 55.488281 469.957031 55.757812 471.867188 55.175781 C 478.886719 53.03125 476.332031 40.363281 475.574219 35.117188 C 475.238281 32.796875 472.921875 17.789062 467.332031 23.125 " fill-opacity="1" fill-rule="nonzero"/></g><g clip-path="url(#d3165565af)"><path fill="#db9715" d="M 472.164062 2.660156 C 472.164062 1.195312 470.980469 0.0078125 469.515625 0.0078125 C 468.054688 0.0078125 466.867188 1.195312 466.867188 2.660156 C 466.867188 4.121094 468.054688 5.308594 469.515625 5.308594 C 470.976562 5.304688 472.164062 4.121094 472.164062 2.660156 " fill-opacity="1" fill-rule="nonzero"/></g><path fill="#db9715" d="M 473.863281 15.578125 C 473.863281 13.125 471.875 11.136719 469.417969 11.136719 C 466.964844 11.136719 464.972656 13.125 464.972656 15.578125 C 464.972656 18.035156 466.964844 20.023438 469.417969 20.023438 C 471.875 20.023438 473.863281 18.035156 473.863281 15.578125 " fill-opacity="1" fill-rule="nonzero"/><path fill="#db9715" d="M 448.464844 31.515625 C 444.285156 36.210938 445.914062 37.558594 447.863281 39.292969 C 449.8125 41.027344 451.34375 42.492188 455.519531 37.796875 C 459.699219 33.101562 464.949219 24.019531 463 22.285156 C 461.050781 20.550781 452.644531 26.816406 448.464844 31.515625 " fill-opacity="1" fill-rule="nonzero"/><path fill="#db9715" d="M 490.6875 31.515625 C 494.867188 36.210938 493.234375 37.558594 491.289062 39.292969 C 489.335938 41.027344 487.808594 42.492188 483.628906 37.796875 C 479.449219 33.101562 474.203125 24.019531 476.152344 22.285156 C 478.101562 20.550781 486.507812 26.816406 490.6875 31.515625 " fill-opacity="1" fill-rule="nonzero"/><g clip-path="url(#e06b2ecfb1)"><path fill="#db9715" d="M 449.910156 12.542969 C 445.34375 12.515625 445.386719 14.632812 445.371094 17.238281 C 445.359375 19.847656 445.289062 21.964844 449.855469 21.992188 C 454.421875 22.015625 461.894531 19.941406 461.910156 17.332031 C 461.921875 14.726562 454.476562 12.566406 449.910156 12.542969 " fill-opacity="1" fill-rule="nonzero"/></g><path fill="#db9715" d="M 489.238281 12.542969 C 493.808594 12.515625 493.761719 14.632812 493.777344 17.238281 C 493.792969 19.847656 493.859375 21.964844 489.296875 21.988281 C 484.726562 22.015625 477.257812 19.941406 477.242188 17.332031 C 477.230469 14.726562 484.675781 12.566406 489.238281 12.542969 " fill-opacity="1" fill-rule="nonzero"/><g clip-path="url(#a5269e48d7)"><path fill="#db9715" d="M 857.292969 26.789062 C 857.199219 26.667969 857.191406 26.585938 857.292969 26.789062 Z M 857.335938 29.199219 C 857.464844 28.800781 857.589844 28.382812 857.734375 27.964844 C 858.402344 29.953125 858.875 31.996094 859.203125 34.066406 C 859.640625 36.792969 859.972656 39.550781 860.085938 42.3125 C 860.179688 44.632812 860.765625 48.378906 859.496094 50.429688 C 858.996094 51.242188 857.449219 50.992188 856.589844 50.914062 C 854.699219 50.746094 855.160156 46.585938 855.140625 45.300781 C 855.226562 39.953125 855.71875 34.324219 857.335938 29.199219 Z M 855.582031 23.125 C 853.371094 25.238281 852.679688 28.988281 852.132812 31.851562 C 851.296875 36.285156 850.777344 40.785156 850.707031 45.300781 C 850.746094 48.128906 850.648438 53.019531 853.722656 54.589844 C 855.472656 55.488281 858.207031 55.757812 860.117188 55.175781 C 867.136719 53.03125 864.582031 40.363281 863.824219 35.117188 C 863.492188 32.796875 861.171875 17.789062 855.582031 23.125 " fill-opacity="1" fill-rule="nonzero"/></g><g clip-path="url(#dc251a6a97)"><path fill="#db9715" d="M 860.414062 2.660156 C 860.414062 1.195312 859.230469 0.0078125 857.765625 0.0078125 C 856.304688 0.0078125 855.117188 1.195312 855.117188 2.660156 C 855.117188 4.121094 856.304688 5.308594 857.765625 5.308594 C 859.226562 5.304688 860.414062 4.121094 860.414062 2.660156 " fill-opacity="1" fill-rule="nonzero"/></g><path fill="#db9715" d="M 862.113281 15.578125 C 862.113281 13.125 860.125 11.136719 857.667969 11.136719 C 855.214844 11.136719 853.226562 13.125 853.226562 15.578125 C 853.226562 18.035156 855.214844 20.023438 857.667969 20.023438 C 860.125 20.023438 862.113281 18.035156 862.113281 15.578125 " fill-opacity="1" fill-rule="nonzero"/><path fill="#db9715" d="M 836.714844 31.515625 C 832.535156 36.210938 834.164062 37.558594 836.113281 39.292969 C 838.066406 41.027344 839.59375 42.492188 843.769531 37.796875 C 847.953125 33.101562 853.203125 24.019531 851.25 22.285156 C 849.300781 20.550781 840.894531 26.816406 836.714844 31.515625 " fill-opacity="1" fill-rule="nonzero"/><path fill="#db9715" d="M 878.9375 31.515625 C 883.117188 36.210938 881.484375 37.558594 879.539062 39.292969 C 877.585938 41.027344 876.0625 42.492188 871.882812 37.796875 C 867.699219 33.101562 862.453125 24.019531 864.402344 22.285156 C 866.351562 20.550781 874.757812 26.816406 878.9375 31.515625 " fill-opacity="1" fill-rule="nonzero"/><path fill="#db9715" d="M 838.160156 12.542969 C 833.59375 12.515625 833.636719 14.632812 833.621094 17.238281 C 833.609375 19.847656 833.539062 21.964844 838.105469 21.992188 C 842.671875 22.015625 850.144531 19.941406 850.160156 17.332031 C 850.171875 14.726562 842.726562 12.566406 838.160156 12.542969 " fill-opacity="1" fill-rule="nonzero"/><path fill="#db9715" d="M 877.492188 12.542969 C 882.058594 12.515625 882.015625 14.632812 882.027344 17.238281 C 882.042969 19.847656 882.109375 21.964844 877.546875 21.988281 C 872.976562 22.015625 865.507812 19.941406 865.496094 17.332031 C 865.480469 14.726562 872.925781 12.566406 877.492188 12.542969 " fill-opacity="1" fill-rule="nonzero"/><g clip-path="url(#7b2b4ef319)"><path fill="#db9715" d="M 802.101562 26.789062 C 802.003906 26.667969 802 26.585938 802.101562 26.789062 Z M 802.144531 29.199219 C 802.269531 28.800781 802.394531 28.382812 802.542969 27.964844 C 803.207031 29.953125 803.679688 31.996094 804.011719 34.066406 C 804.449219 36.792969 804.777344 39.550781 804.890625 42.3125 C 804.984375 44.632812 805.570312 48.378906 804.304688 50.429688 C 803.800781 51.242188 802.253906 50.992188 801.398438 50.914062 C 799.503906 50.746094 799.964844 46.585938 799.949219 45.300781 C 800.03125 39.953125 800.523438 34.324219 802.144531 29.199219 Z M 800.386719 23.125 C 798.175781 25.238281 797.484375 28.988281 796.941406 31.851562 C 796.101562 36.285156 795.585938 40.785156 795.515625 45.300781 C 795.550781 48.128906 795.457031 53.019531 798.527344 54.589844 C 800.277344 55.488281 803.015625 55.757812 804.925781 55.175781 C 811.945312 53.03125 809.386719 40.363281 808.632812 35.117188 C 808.296875 32.796875 805.980469 17.789062 800.386719 23.125 " fill-opacity="1" fill-rule="nonzero"/></g><g clip-path="url(#a972e1bfa9)"><path fill="#db9715" d="M 805.222656 2.660156 C 805.222656 1.195312 804.035156 0.0078125 802.570312 0.0078125 C 801.109375 0.0078125 799.925781 1.195312 799.921875 2.660156 C 799.921875 4.121094 801.109375 5.308594 802.570312 5.308594 C 804.035156 5.304688 805.222656 4.121094 805.222656 2.660156 " fill-opacity="1" fill-rule="nonzero"/></g><path fill="#db9715" d="M 806.917969 15.578125 C 806.917969 13.125 804.929688 11.136719 802.476562 11.136719 C 800.023438 11.136719 798.03125 13.125 798.03125 15.578125 C 798.03125 18.035156 800.019531 20.023438 802.476562 20.023438 C 804.929688 20.023438 806.921875 18.035156 806.917969 15.578125 " fill-opacity="1" fill-rule="nonzero"/><path fill="#db9715" d="M 781.523438 31.515625 C 777.34375 36.210938 778.972656 37.558594 780.917969 39.292969 C 782.871094 41.027344 784.398438 42.492188 788.578125 37.796875 C 792.757812 33.101562 798.007812 24.019531 796.054688 22.285156 C 794.109375 20.550781 785.699219 26.816406 781.523438 31.515625 " fill-opacity="1" fill-rule="nonzero"/><path fill="#db9715" d="M 823.746094 31.515625 C 827.921875 36.210938 826.292969 37.558594 824.34375 39.292969 C 822.394531 41.027344 820.867188 42.492188 816.6875 37.796875 C 812.503906 33.101562 807.257812 24.019531 809.207031 22.285156 C 811.15625 20.550781 819.566406 26.816406 823.746094 31.515625 " fill-opacity="1" fill-rule="nonzero"/><path fill="#db9715" d="M 782.964844 12.542969 C 778.402344 12.515625 778.445312 14.632812 778.429688 17.238281 C 778.414062 19.847656 778.347656 21.964844 782.914062 21.992188 C 787.480469 22.015625 794.953125 19.941406 794.964844 17.332031 C 794.980469 14.726562 787.535156 12.566406 782.964844 12.542969 " fill-opacity="1" fill-rule="nonzero"/><path fill="#db9715" d="M 822.296875 12.542969 C 826.863281 12.515625 826.820312 14.632812 826.835938 17.238281 C 826.847656 19.847656 826.917969 21.964844 822.351562 21.988281 C 817.785156 22.015625 810.316406 19.941406 810.296875 17.332031 C 810.285156 14.726562 817.730469 12.566406 822.296875 12.542969 " fill-opacity="1" fill-rule="nonzero"/><g clip-path="url(#556cbc2fa8)"><path fill="#db9715" d="M 746.195312 26.789062 C 746.097656 26.667969 746.09375 26.585938 746.195312 26.789062 Z M 746.238281 29.199219 C 746.363281 28.800781 746.488281 28.382812 746.636719 27.964844 C 747.304688 29.953125 747.773438 31.996094 748.105469 34.066406 C 748.542969 36.792969 748.871094 39.550781 748.984375 42.3125 C 749.078125 44.632812 749.667969 48.378906 748.398438 50.429688 C 747.894531 51.242188 746.347656 50.992188 745.492188 50.914062 C 743.601562 50.746094 744.058594 46.585938 744.042969 45.300781 C 744.125 39.953125 744.617188 34.324219 746.238281 29.199219 Z M 744.480469 23.125 C 742.269531 25.238281 741.578125 28.988281 741.035156 31.851562 C 740.195312 36.285156 739.679688 40.785156 739.609375 45.300781 C 739.644531 48.128906 739.550781 53.019531 742.621094 54.589844 C 744.371094 55.488281 747.105469 55.757812 749.019531 55.175781 C 756.039062 53.03125 753.484375 40.363281 752.726562 35.117188 C 752.390625 32.796875 750.074219 17.789062 744.480469 23.125 " fill-opacity="1" fill-rule="nonzero"/></g><g clip-path="url(#567c72b8f4)"><path fill="#db9715" d="M 749.316406 2.660156 C 749.316406 1.195312 748.128906 0.0078125 746.667969 0.0078125 C 745.203125 0.0078125 744.019531 1.195312 744.015625 2.660156 C 744.015625 4.121094 745.203125 5.308594 746.667969 5.308594 C 748.128906 5.304688 749.316406 4.121094 749.316406 2.660156 " fill-opacity="1" fill-rule="nonzero"/></g><path fill="#db9715" d="M 751.011719 15.578125 C 751.011719 13.125 749.023438 11.136719 746.566406 11.136719 C 744.117188 11.136719 742.125 13.125 742.125 15.578125 C 742.125 18.035156 744.113281 20.023438 746.566406 20.023438 C 749.023438 20.023438 751.015625 18.035156 751.011719 15.578125 " fill-opacity="1" fill-rule="nonzero"/><path fill="#db9715" d="M 725.617188 31.515625 C 721.4375 36.210938 723.066406 37.558594 725.011719 39.292969 C 726.964844 41.027344 728.492188 42.492188 732.671875 37.796875 C 736.851562 33.101562 742.101562 24.019531 740.148438 22.285156 C 738.203125 20.550781 729.792969 26.816406 725.617188 31.515625 " fill-opacity="1" fill-rule="nonzero"/><path fill="#db9715" d="M 767.839844 31.515625 C 772.015625 36.210938 770.386719 37.558594 768.4375 39.292969 C 766.488281 41.027344 764.960938 42.492188 760.78125 37.796875 C 756.597656 33.101562 751.351562 24.019531 753.300781 22.285156 C 755.25 20.550781 763.660156 26.816406 767.839844 31.515625 " fill-opacity="1" fill-rule="nonzero"/><path fill="#db9715" d="M 727.058594 12.542969 C 722.496094 12.515625 722.539062 14.632812 722.523438 17.238281 C 722.511719 19.847656 722.441406 21.964844 727.007812 21.992188 C 731.574219 22.015625 739.046875 19.941406 739.058594 17.332031 C 739.074219 14.726562 731.628906 12.566406 727.058594 12.542969 " fill-opacity="1" fill-rule="nonzero"/><path fill="#db9715" d="M 766.390625 12.542969 C 770.960938 12.515625 770.914062 14.632812 770.929688 17.238281 C 770.941406 19.847656 771.011719 21.964844 766.445312 21.988281 C 761.878906 22.015625 754.410156 19.941406 754.394531 17.332031 C 754.378906 14.726562 761.824219 12.566406 766.390625 12.542969 " fill-opacity="1" fill-rule="nonzero"/><g clip-path="url(#9809844236)"><path fill="#db9715" d="M 691 26.789062 C 690.902344 26.667969 690.898438 26.585938 691 26.789062 Z M 691.042969 29.199219 C 691.171875 28.800781 691.296875 28.382812 691.441406 27.964844 C 692.109375 29.953125 692.582031 31.996094 692.910156 34.066406 C 693.347656 36.792969 693.679688 39.550781 693.789062 42.3125 C 693.882812 44.632812 694.472656 48.378906 693.203125 50.429688 C 692.699219 51.242188 691.152344 50.992188 690.296875 50.914062 C 688.40625 50.746094 688.863281 46.585938 688.847656 45.300781 C 688.933594 39.953125 689.421875 34.324219 691.042969 29.199219 Z M 689.289062 23.125 C 687.074219 25.238281 686.382812 28.988281 685.839844 31.851562 C 685.003906 36.285156 684.484375 40.785156 684.414062 45.300781 C 684.453125 48.128906 684.355469 53.019531 687.429688 54.589844 C 689.179688 55.488281 691.914062 55.757812 693.824219 55.175781 C 700.84375 53.03125 698.289062 40.363281 697.53125 35.117188 C 697.195312 32.796875 694.878906 17.789062 689.289062 23.125 " fill-opacity="1" fill-rule="nonzero"/></g><g clip-path="url(#61f59b5f82)"><path fill="#db9715" d="M 694.121094 2.660156 C 694.121094 1.195312 692.9375 0.0078125 691.472656 0.0078125 C 690.011719 0.0078125 688.824219 1.195312 688.824219 2.660156 C 688.824219 4.121094 690.011719 5.308594 691.472656 5.308594 C 692.933594 5.304688 694.121094 4.121094 694.121094 2.660156 " fill-opacity="1" fill-rule="nonzero"/></g><path fill="#db9715" d="M 695.820312 15.578125 C 695.820312 13.125 693.832031 11.136719 691.375 11.136719 C 688.921875 11.136719 686.929688 13.125 686.929688 15.578125 C 686.929688 18.035156 688.921875 20.023438 691.375 20.023438 C 693.832031 20.023438 695.820312 18.035156 695.820312 15.578125 " fill-opacity="1" fill-rule="nonzero"/><path fill="#db9715" d="M 670.421875 31.515625 C 666.242188 36.210938 667.871094 37.558594 669.820312 39.292969 C 671.769531 41.027344 673.300781 42.492188 677.476562 37.796875 C 681.65625 33.101562 686.90625 24.019531 684.957031 22.285156 C 683.007812 20.550781 674.601562 26.816406 670.421875 31.515625 " fill-opacity="1" fill-rule="nonzero"/><path fill="#db9715" d="M 712.644531 31.515625 C 716.824219 36.210938 715.191406 37.558594 713.246094 39.292969 C 711.292969 41.027344 709.765625 42.492188 705.585938 37.796875 C 701.40625 33.101562 696.160156 24.019531 698.109375 22.285156 C 700.058594 20.550781 708.464844 26.816406 712.644531 31.515625 " fill-opacity="1" fill-rule="nonzero"/><g clip-path="url(#542121bb1f)"><path fill="#db9715" d="M 671.867188 12.542969 C 667.300781 12.515625 667.34375 14.632812 667.328125 17.238281 C 667.316406 19.847656 667.246094 21.964844 671.8125 21.992188 C 676.378906 22.015625 683.851562 19.941406 683.867188 17.332031 C 683.878906 14.726562 676.433594 12.566406 671.867188 12.542969 " fill-opacity="1" fill-rule="nonzero"/></g><path fill="#db9715" d="M 711.195312 12.542969 C 715.765625 12.515625 715.71875 14.632812 715.734375 17.238281 C 715.75 19.847656 715.816406 21.964844 711.253906 21.988281 C 706.683594 22.015625 699.214844 19.941406 699.199219 17.332031 C 699.1875 14.726562 706.632812 12.566406 711.195312 12.542969 " fill-opacity="1" fill-rule="nonzero"/><g clip-path="url(#c6d7c16e22)"><path fill="#db9715" d="M 1079.324219 26.789062 C 1079.226562 26.667969 1079.222656 26.585938 1079.324219 26.789062 Z M 1079.367188 29.199219 C 1079.492188 28.800781 1079.617188 28.382812 1079.765625 27.964844 C 1080.429688 29.953125 1080.902344 31.996094 1081.234375 34.066406 C 1081.671875 36.792969 1082 39.550781 1082.113281 42.3125 C 1082.207031 44.632812 1082.792969 48.378906 1081.527344 50.429688 C 1081.023438 51.242188 1079.476562 50.992188 1078.621094 50.914062 C 1076.726562 50.746094 1077.1875 46.585938 1077.171875 45.300781 C 1077.253906 39.953125 1077.746094 34.324219 1079.367188 29.199219 Z M 1077.609375 23.125 C 1075.398438 25.238281 1074.707031 28.988281 1074.164062 31.851562 C 1073.324219 36.285156 1072.808594 40.785156 1072.738281 45.300781 C 1072.773438 48.128906 1072.675781 53.019531 1075.75 54.589844 C 1077.503906 55.488281 1080.238281 55.757812 1082.148438 55.175781 C 1089.167969 53.03125 1086.609375 40.363281 1085.855469 35.117188 C 1085.519531 32.796875 1083.199219 17.789062 1077.609375 23.125 " fill-opacity="1" fill-rule="nonzero"/></g><g clip-path="url(#2113f4e4bf)"><path fill="#db9715" d="M 1082.445312 2.660156 C 1082.445312 1.195312 1081.257812 0.0078125 1079.792969 0.0078125 C 1078.332031 0.0078125 1077.148438 1.195312 1077.144531 2.660156 C 1077.144531 4.121094 1078.332031 5.308594 1079.792969 5.308594 C 1081.257812 5.304688 1082.445312 4.121094 1082.445312 2.660156 " fill-opacity="1" fill-rule="nonzero"/></g><path fill="#db9715" d="M 1084.140625 15.578125 C 1084.140625 13.125 1082.152344 11.136719 1079.699219 11.136719 C 1077.242188 11.136719 1075.253906 13.125 1075.253906 15.578125 C 1075.253906 18.035156 1077.242188 20.023438 1079.699219 20.023438 C 1082.152344 20.023438 1084.144531 18.035156 1084.140625 15.578125 " fill-opacity="1" fill-rule="nonzero"/><path fill="#db9715" d="M 1058.746094 31.515625 C 1054.5625 36.210938 1056.195312 37.558594 1058.140625 39.292969 C 1060.09375 41.027344 1061.621094 42.492188 1065.800781 37.796875 C 1069.980469 33.101562 1075.230469 24.019531 1073.277344 22.285156 C 1071.332031 20.550781 1062.921875 26.816406 1058.746094 31.515625 " fill-opacity="1" fill-rule="nonzero"/><path fill="#db9715" d="M 1100.96875 31.515625 C 1105.144531 36.210938 1103.515625 37.558594 1101.566406 39.292969 C 1099.617188 41.027344 1098.089844 42.492188 1093.910156 37.796875 C 1089.726562 33.101562 1084.480469 24.019531 1086.429688 22.285156 C 1088.378906 20.550781 1096.789062 26.816406 1100.96875 31.515625 " fill-opacity="1" fill-rule="nonzero"/><path fill="#db9715" d="M 1060.1875 12.542969 C 1055.625 12.515625 1055.667969 14.632812 1055.652344 17.238281 C 1055.636719 19.847656 1055.566406 21.964844 1060.132812 21.992188 C 1064.699219 22.015625 1072.175781 19.941406 1072.1875 17.332031 C 1072.199219 14.726562 1064.757812 12.566406 1060.1875 12.542969 " fill-opacity="1" fill-rule="nonzero"/><path fill="#db9715" d="M 1099.519531 12.542969 C 1104.085938 12.515625 1104.042969 14.632812 1104.058594 17.238281 C 1104.070312 19.847656 1104.140625 21.964844 1099.574219 21.988281 C 1095.007812 22.015625 1087.539062 19.941406 1087.523438 17.332031 C 1087.507812 14.726562 1094.953125 12.566406 1099.519531 12.542969 " fill-opacity="1" fill-rule="nonzero"/><g clip-path="url(#f2d8dc54bc)"><path fill="#db9715" d="M 1024.128906 26.789062 C 1024.03125 26.667969 1024.027344 26.585938 1024.128906 26.789062 Z M 1024.171875 29.199219 C 1024.296875 28.800781 1024.425781 28.382812 1024.570312 27.964844 C 1025.238281 29.953125 1025.707031 31.996094 1026.039062 34.066406 C 1026.476562 36.792969 1026.804688 39.550781 1026.917969 42.3125 C 1027.011719 44.632812 1027.601562 48.378906 1026.332031 50.429688 C 1025.828125 51.242188 1024.28125 50.992188 1023.425781 50.914062 C 1021.535156 50.746094 1021.996094 46.585938 1021.976562 45.300781 C 1022.0625 39.953125 1022.550781 34.324219 1024.171875 29.199219 Z M 1022.414062 23.125 C 1020.203125 25.238281 1019.511719 28.988281 1018.96875 31.851562 C 1018.132812 36.285156 1017.613281 40.785156 1017.542969 45.300781 C 1017.578125 48.128906 1017.484375 53.019531 1020.558594 54.589844 C 1022.308594 55.488281 1025.042969 55.757812 1026.953125 55.175781 C 1033.972656 53.03125 1031.417969 40.363281 1030.660156 35.117188 C 1030.324219 32.796875 1028.007812 17.789062 1022.414062 23.125 " fill-opacity="1" fill-rule="nonzero"/></g><g clip-path="url(#da079e2939)"><path fill="#db9715" d="M 1027.25 2.660156 C 1027.25 1.195312 1026.066406 0.0078125 1024.601562 0.0078125 C 1023.136719 0.0078125 1021.953125 1.195312 1021.953125 2.660156 C 1021.953125 4.121094 1023.136719 5.308594 1024.601562 5.308594 C 1026.0625 5.304688 1027.25 4.121094 1027.25 2.660156 " fill-opacity="1" fill-rule="nonzero"/></g><path fill="#db9715" d="M 1028.949219 15.578125 C 1028.949219 13.125 1026.957031 11.136719 1024.503906 11.136719 C 1022.050781 11.136719 1020.058594 13.125 1020.058594 15.578125 C 1020.058594 18.035156 1022.046875 20.023438 1024.503906 20.023438 C 1026.957031 20.023438 1028.949219 18.035156 1028.949219 15.578125 " fill-opacity="1" fill-rule="nonzero"/><path fill="#db9715" d="M 1003.550781 31.515625 C 999.371094 36.210938 1001 37.558594 1002.949219 39.292969 C 1004.898438 41.027344 1006.429688 42.492188 1010.605469 37.796875 C 1014.785156 33.101562 1020.035156 24.019531 1018.085938 22.285156 C 1016.136719 20.550781 1007.726562 26.816406 1003.550781 31.515625 " fill-opacity="1" fill-rule="nonzero"/><path fill="#db9715" d="M 1045.773438 31.515625 C 1049.953125 36.210938 1048.320312 37.558594 1046.375 39.292969 C 1044.425781 41.027344 1042.894531 42.492188 1038.714844 37.796875 C 1034.535156 33.101562 1029.289062 24.019531 1031.238281 22.285156 C 1033.183594 20.550781 1041.59375 26.816406 1045.773438 31.515625 " fill-opacity="1" fill-rule="nonzero"/><path fill="#db9715" d="M 1004.996094 12.542969 C 1000.429688 12.515625 1000.472656 14.632812 1000.457031 17.238281 C 1000.445312 19.847656 1000.375 21.964844 1004.941406 21.992188 C 1009.507812 22.015625 1016.980469 19.941406 1016.996094 17.332031 C 1017.007812 14.726562 1009.5625 12.566406 1004.996094 12.542969 " fill-opacity="1" fill-rule="nonzero"/><path fill="#db9715" d="M 1044.324219 12.542969 C 1048.894531 12.515625 1048.847656 14.632812 1048.863281 17.238281 C 1048.878906 19.847656 1048.945312 21.964844 1044.382812 21.988281 C 1039.8125 22.015625 1032.34375 19.941406 1032.328125 17.332031 C 1032.316406 14.726562 1039.757812 12.566406 1044.324219 12.542969 " fill-opacity="1" fill-rule="nonzero"/><g clip-path="url(#d2770f12ea)"><path fill="#db9715" d="M 968.222656 26.789062 C 968.125 26.667969 968.121094 26.585938 968.222656 26.789062 Z M 968.265625 29.199219 C 968.390625 28.800781 968.519531 28.382812 968.664062 27.964844 C 969.332031 29.953125 969.800781 31.996094 970.132812 34.066406 C 970.570312 36.792969 970.902344 39.550781 971.011719 42.3125 C 971.105469 44.632812 971.695312 48.378906 970.425781 50.429688 C 969.921875 51.242188 968.375 50.992188 967.519531 50.914062 C 965.628906 50.746094 966.089844 46.585938 966.070312 45.300781 C 966.15625 39.953125 966.644531 34.324219 968.265625 29.199219 Z M 966.507812 23.125 C 964.296875 25.238281 963.605469 28.988281 963.0625 31.851562 C 962.226562 36.285156 961.707031 40.785156 961.636719 45.300781 C 961.675781 48.128906 961.578125 53.019531 964.652344 54.589844 C 966.402344 55.488281 969.136719 55.757812 971.046875 55.175781 C 978.066406 53.03125 975.511719 40.363281 974.753906 35.117188 C 974.417969 32.796875 972.101562 17.789062 966.507812 23.125 " fill-opacity="1" fill-rule="nonzero"/></g><g clip-path="url(#6ddce718e8)"><path fill="#db9715" d="M 971.34375 2.660156 C 971.347656 1.195312 970.160156 0.0078125 968.695312 0.0078125 C 967.234375 0.0078125 966.046875 1.195312 966.046875 2.660156 C 966.046875 4.121094 967.234375 5.308594 968.695312 5.308594 C 970.15625 5.304688 971.34375 4.121094 971.34375 2.660156 " fill-opacity="1" fill-rule="nonzero"/></g><path fill="#db9715" d="M 973.042969 15.578125 C 973.042969 13.125 971.050781 11.136719 968.597656 11.136719 C 966.144531 11.136719 964.152344 13.125 964.152344 15.578125 C 964.152344 18.035156 966.140625 20.023438 968.597656 20.023438 C 971.050781 20.023438 973.042969 18.035156 973.042969 15.578125 " fill-opacity="1" fill-rule="nonzero"/><path fill="#db9715" d="M 947.644531 31.515625 C 943.464844 36.210938 945.09375 37.558594 947.042969 39.292969 C 948.992188 41.027344 950.523438 42.492188 954.699219 37.796875 C 958.878906 33.101562 964.128906 24.019531 962.179688 22.285156 C 960.230469 20.550781 951.824219 26.816406 947.644531 31.515625 " fill-opacity="1" fill-rule="nonzero"/><path fill="#db9715" d="M 989.867188 31.515625 C 994.046875 36.210938 992.414062 37.558594 990.464844 39.292969 C 988.519531 41.027344 986.988281 42.492188 982.808594 37.796875 C 978.628906 33.101562 973.382812 24.019531 975.328125 22.285156 C 977.277344 20.550781 985.6875 26.816406 989.867188 31.515625 " fill-opacity="1" fill-rule="nonzero"/><path fill="#db9715" d="M 949.089844 12.542969 C 944.523438 12.515625 944.566406 14.632812 944.550781 17.238281 C 944.539062 19.847656 944.46875 21.964844 949.035156 21.992188 C 953.601562 22.015625 961.074219 19.941406 961.089844 17.332031 C 961.101562 14.726562 953.65625 12.566406 949.089844 12.542969 " fill-opacity="1" fill-rule="nonzero"/><path fill="#db9715" d="M 988.417969 12.542969 C 992.988281 12.515625 992.941406 14.632812 992.957031 17.238281 C 992.972656 19.847656 993.039062 21.964844 988.476562 21.988281 C 983.90625 22.015625 976.4375 19.941406 976.421875 17.332031 C 976.410156 14.726562 983.851562 12.566406 988.417969 12.542969 " fill-opacity="1" fill-rule="nonzero"/><g clip-path="url(#7be2f6da56)"><path fill="#db9715" d="M 913.03125 26.789062 C 912.933594 26.667969 912.925781 26.585938 913.03125 26.789062 Z M 913.074219 29.199219 C 913.199219 28.800781 913.324219 28.382812 913.46875 27.964844 C 914.136719 29.953125 914.609375 31.996094 914.941406 34.066406 C 915.375 36.792969 915.707031 39.550781 915.816406 42.3125 C 915.914062 44.632812 916.5 48.378906 915.234375 50.429688 C 914.730469 51.242188 913.183594 50.992188 912.328125 50.914062 C 910.433594 50.746094 910.894531 46.585938 910.875 45.300781 C 910.960938 39.953125 911.453125 34.324219 913.074219 29.199219 Z M 911.316406 23.125 C 909.101562 25.238281 908.414062 28.988281 907.871094 31.851562 C 907.03125 36.285156 906.511719 40.785156 906.445312 45.300781 C 906.480469 48.128906 906.382812 53.019531 909.457031 54.589844 C 911.207031 55.488281 913.941406 55.757812 915.851562 55.175781 C 922.875 53.03125 920.320312 40.363281 919.558594 35.117188 C 919.226562 32.796875 916.90625 17.789062 911.316406 23.125 " fill-opacity="1" fill-rule="nonzero"/></g><g clip-path="url(#1deb5257ae)"><path fill="#db9715" d="M 916.148438 2.660156 C 916.148438 1.195312 914.964844 0.0078125 913.5 0.0078125 C 912.039062 0.0078125 910.851562 1.195312 910.851562 2.660156 C 910.851562 4.121094 912.039062 5.308594 913.5 5.308594 C 914.964844 5.304688 916.148438 4.121094 916.148438 2.660156 " fill-opacity="1" fill-rule="nonzero"/></g><path fill="#db9715" d="M 917.847656 15.578125 C 917.847656 13.125 915.859375 11.136719 913.402344 11.136719 C 910.949219 11.136719 908.960938 13.125 908.960938 15.578125 C 908.960938 18.035156 910.949219 20.023438 913.402344 20.023438 C 915.859375 20.023438 917.851562 18.035156 917.847656 15.578125 " fill-opacity="1" fill-rule="nonzero"/><path fill="#db9715" d="M 892.449219 31.515625 C 888.269531 36.210938 889.898438 37.558594 891.847656 39.292969 C 893.800781 41.027344 895.328125 42.492188 899.507812 37.796875 C 903.6875 33.101562 908.9375 24.019531 906.984375 22.285156 C 905.035156 20.550781 896.628906 26.816406 892.449219 31.515625 " fill-opacity="1" fill-rule="nonzero"/><path fill="#db9715" d="M 934.671875 31.515625 C 938.851562 36.210938 937.21875 37.558594 935.273438 39.292969 C 933.324219 41.027344 931.796875 42.492188 927.617188 37.796875 C 923.433594 33.101562 918.1875 24.019531 920.136719 22.285156 C 922.085938 20.550781 930.492188 26.816406 934.671875 31.515625 " fill-opacity="1" fill-rule="nonzero"/><g clip-path="url(#172a857de7)"><path fill="#db9715" d="M 893.894531 12.542969 C 889.332031 12.515625 889.375 14.632812 889.355469 17.238281 C 889.34375 19.847656 889.273438 21.964844 893.839844 21.992188 C 898.40625 22.015625 905.878906 19.941406 905.894531 17.332031 C 905.90625 14.726562 898.464844 12.566406 893.894531 12.542969 " fill-opacity="1" fill-rule="nonzero"/></g><path fill="#db9715" d="M 933.226562 12.542969 C 937.792969 12.515625 937.75 14.632812 937.761719 17.238281 C 937.777344 19.847656 937.847656 21.964844 933.28125 21.988281 C 928.714844 22.015625 921.242188 19.941406 921.226562 17.332031 C 921.214844 14.726562 928.660156 12.566406 933.226562 12.542969 " fill-opacity="1" fill-rule="nonzero"/><g clip-path="url(#5f3c065a0c)"><path fill="#db9715" d="M 1301.28125 26.789062 C 1301.183594 26.667969 1301.179688 26.585938 1301.28125 26.789062 Z M 1301.324219 29.199219 C 1301.449219 28.800781 1301.574219 28.382812 1301.722656 27.964844 C 1302.386719 29.953125 1302.859375 31.996094 1303.191406 34.066406 C 1303.628906 36.792969 1303.957031 39.550781 1304.070312 42.3125 C 1304.164062 44.632812 1304.75 48.378906 1303.484375 50.429688 C 1302.980469 51.242188 1301.433594 50.992188 1300.578125 50.914062 C 1298.683594 50.746094 1299.144531 46.585938 1299.128906 45.300781 C 1299.210938 39.953125 1299.703125 34.324219 1301.324219 29.199219 Z M 1299.566406 23.125 C 1297.355469 25.238281 1296.664062 28.988281 1296.121094 31.851562 C 1295.28125 36.285156 1294.765625 40.785156 1294.695312 45.300781 C 1294.730469 48.128906 1294.632812 53.019531 1297.707031 54.589844 C 1299.460938 55.488281 1302.195312 55.757812 1304.105469 55.175781 C 1311.125 53.03125 1308.566406 40.363281 1307.8125 35.117188 C 1307.476562 32.796875 1305.15625 17.789062 1299.566406 23.125 " fill-opacity="1" fill-rule="nonzero"/></g><g clip-path="url(#d6beeff8f8)"><path fill="#db9715" d="M 1304.402344 2.660156 C 1304.402344 1.195312 1303.214844 0.0078125 1301.75 0.0078125 C 1300.289062 0.0078125 1299.105469 1.195312 1299.101562 2.660156 C 1299.101562 4.121094 1300.289062 5.308594 1301.75 5.308594 C 1303.214844 5.304688 1304.402344 4.121094 1304.402344 2.660156 " fill-opacity="1" fill-rule="nonzero"/></g><path fill="#db9715" d="M 1306.097656 15.578125 C 1306.097656 13.125 1304.109375 11.136719 1301.65625 11.136719 C 1299.203125 11.136719 1297.210938 13.125 1297.210938 15.578125 C 1297.210938 18.035156 1299.199219 20.023438 1301.65625 20.023438 C 1304.109375 20.023438 1306.101562 18.035156 1306.097656 15.578125 " fill-opacity="1" fill-rule="nonzero"/><path fill="#db9715" d="M 1280.703125 31.515625 C 1276.523438 36.210938 1278.152344 37.558594 1280.097656 39.292969 C 1282.050781 41.027344 1283.578125 42.492188 1287.757812 37.796875 C 1291.9375 33.101562 1297.1875 24.019531 1295.234375 22.285156 C 1293.289062 20.550781 1284.878906 26.816406 1280.703125 31.515625 " fill-opacity="1" fill-rule="nonzero"/><path fill="#db9715" d="M 1322.925781 31.515625 C 1327.101562 36.210938 1325.472656 37.558594 1323.523438 39.292969 C 1321.574219 41.027344 1320.046875 42.492188 1315.867188 37.796875 C 1311.683594 33.101562 1306.4375 24.019531 1308.386719 22.285156 C 1310.335938 20.550781 1318.746094 26.816406 1322.925781 31.515625 " fill-opacity="1" fill-rule="nonzero"/><path fill="#db9715" d="M 1282.144531 12.542969 C 1277.582031 12.515625 1277.625 14.632812 1277.609375 17.238281 C 1277.59375 19.847656 1277.523438 21.964844 1282.089844 21.992188 C 1286.65625 22.015625 1294.132812 19.941406 1294.144531 17.332031 C 1294.15625 14.726562 1286.714844 12.566406 1282.144531 12.542969 " fill-opacity="1" fill-rule="nonzero"/><path fill="#db9715" d="M 1321.476562 12.542969 C 1326.042969 12.515625 1326 14.632812 1326.015625 17.238281 C 1326.027344 19.847656 1326.097656 21.964844 1321.53125 21.988281 C 1316.964844 22.015625 1309.496094 19.941406 1309.480469 17.332031 C 1309.464844 14.726562 1316.910156 12.566406 1321.476562 12.542969 " fill-opacity="1" fill-rule="nonzero"/><g clip-path="url(#758611588e)"><path fill="#db9715" d="M 1246.085938 26.789062 C 1245.988281 26.667969 1245.984375 26.585938 1246.085938 26.789062 Z M 1246.128906 29.199219 C 1246.253906 28.800781 1246.382812 28.382812 1246.527344 27.964844 C 1247.195312 29.953125 1247.664062 31.996094 1247.996094 34.066406 C 1248.433594 36.792969 1248.761719 39.550781 1248.875 42.3125 C 1248.96875 44.632812 1249.558594 48.378906 1248.289062 50.429688 C 1247.785156 51.242188 1246.238281 50.992188 1245.382812 50.914062 C 1243.492188 50.746094 1243.953125 46.585938 1243.933594 45.300781 C 1244.019531 39.953125 1244.507812 34.324219 1246.128906 29.199219 Z M 1244.371094 23.125 C 1242.164062 25.238281 1241.46875 28.988281 1240.925781 31.851562 C 1240.089844 36.285156 1239.570312 40.785156 1239.5 45.300781 C 1239.535156 48.128906 1239.441406 53.019531 1242.515625 54.589844 C 1244.265625 55.488281 1247 55.757812 1248.910156 55.175781 C 1255.929688 53.03125 1253.375 40.363281 1252.617188 35.117188 C 1252.28125 32.796875 1249.964844 17.789062 1244.371094 23.125 " fill-opacity="1" fill-rule="nonzero"/></g><g clip-path="url(#b0c37c00c5)"><path fill="#db9715" d="M 1249.207031 2.660156 C 1249.207031 1.195312 1248.023438 0.0078125 1246.558594 0.0078125 C 1245.09375 0.0078125 1243.910156 1.195312 1243.910156 2.660156 C 1243.910156 4.121094 1245.09375 5.308594 1246.558594 5.308594 C 1248.019531 5.304688 1249.207031 4.121094 1249.207031 2.660156 " fill-opacity="1" fill-rule="nonzero"/></g><path fill="#db9715" d="M 1250.90625 15.578125 C 1250.90625 13.125 1248.914062 11.136719 1246.460938 11.136719 C 1244.007812 11.136719 1242.015625 13.125 1242.015625 15.578125 C 1242.015625 18.035156 1244.003906 20.023438 1246.460938 20.023438 C 1248.914062 20.023438 1250.90625 18.035156 1250.90625 15.578125 " fill-opacity="1" fill-rule="nonzero"/><path fill="#db9715" d="M 1225.507812 31.515625 C 1221.328125 36.210938 1222.957031 37.558594 1224.90625 39.292969 C 1226.855469 41.027344 1228.386719 42.492188 1232.5625 37.796875 C 1236.742188 33.101562 1241.992188 24.019531 1240.042969 22.285156 C 1238.09375 20.550781 1229.6875 26.816406 1225.507812 31.515625 " fill-opacity="1" fill-rule="nonzero"/><path fill="#db9715" d="M 1267.730469 31.515625 C 1271.910156 36.210938 1270.277344 37.558594 1268.332031 39.292969 C 1266.382812 41.027344 1264.851562 42.492188 1260.671875 37.796875 C 1256.492188 33.101562 1251.246094 24.019531 1253.195312 22.285156 C 1255.140625 20.550781 1263.550781 26.816406 1267.730469 31.515625 " fill-opacity="1" fill-rule="nonzero"/><path fill="#db9715" d="M 1226.953125 12.542969 C 1222.386719 12.515625 1222.429688 14.632812 1222.414062 17.238281 C 1222.402344 19.847656 1222.332031 21.964844 1226.898438 21.992188 C 1231.464844 22.015625 1238.9375 19.941406 1238.953125 17.332031 C 1238.964844 14.726562 1231.519531 12.566406 1226.953125 12.542969 " fill-opacity="1" fill-rule="nonzero"/><path fill="#db9715" d="M 1266.28125 12.542969 C 1270.851562 12.515625 1270.804688 14.632812 1270.820312 17.238281 C 1270.835938 19.847656 1270.902344 21.964844 1266.339844 21.988281 C 1261.769531 22.015625 1254.300781 19.941406 1254.285156 17.332031 C 1254.273438 14.726562 1261.714844 12.566406 1266.28125 12.542969 " fill-opacity="1" fill-rule="nonzero"/><g clip-path="url(#530aa41f65)"><path fill="#db9715" d="M 1190.179688 26.789062 C 1190.082031 26.667969 1190.078125 26.585938 1190.179688 26.789062 Z M 1190.222656 29.199219 C 1190.347656 28.800781 1190.476562 28.382812 1190.621094 27.964844 C 1191.289062 29.953125 1191.757812 31.996094 1192.089844 34.066406 C 1192.527344 36.792969 1192.859375 39.550781 1192.96875 42.3125 C 1193.0625 44.632812 1193.652344 48.378906 1192.382812 50.429688 C 1191.878906 51.242188 1190.332031 50.992188 1189.476562 50.914062 C 1187.585938 50.746094 1188.046875 46.585938 1188.027344 45.300781 C 1188.113281 39.953125 1188.601562 34.324219 1190.222656 29.199219 Z M 1188.464844 23.125 C 1186.253906 25.238281 1185.5625 28.988281 1185.019531 31.851562 C 1184.183594 36.285156 1183.664062 40.785156 1183.59375 45.300781 C 1183.632812 48.128906 1183.535156 53.019531 1186.609375 54.589844 C 1188.359375 55.488281 1191.09375 55.757812 1193.003906 55.175781 C 1200.023438 53.03125 1197.46875 40.363281 1196.710938 35.117188 C 1196.375 32.796875 1194.058594 17.789062 1188.464844 23.125 " fill-opacity="1" fill-rule="nonzero"/></g><g clip-path="url(#6898bb642b)"><path fill="#db9715" d="M 1193.300781 2.660156 C 1193.304688 1.195312 1192.117188 0.0078125 1190.652344 0.0078125 C 1189.191406 0.0078125 1188.003906 1.195312 1188.003906 2.660156 C 1188.003906 4.121094 1189.191406 5.308594 1190.652344 5.308594 C 1192.113281 5.304688 1193.300781 4.121094 1193.300781 2.660156 " fill-opacity="1" fill-rule="nonzero"/></g><path fill="#db9715" d="M 1195 15.578125 C 1195 13.125 1193.007812 11.136719 1190.554688 11.136719 C 1188.101562 11.136719 1186.109375 13.125 1186.109375 15.578125 C 1186.109375 18.035156 1188.101562 20.023438 1190.554688 20.023438 C 1193.007812 20.023438 1195 18.035156 1195 15.578125 " fill-opacity="1" fill-rule="nonzero"/><path fill="#db9715" d="M 1169.601562 31.515625 C 1165.421875 36.210938 1167.050781 37.558594 1169 39.292969 C 1170.949219 41.027344 1172.480469 42.492188 1176.65625 37.796875 C 1180.835938 33.101562 1186.085938 24.019531 1184.136719 22.285156 C 1182.1875 20.550781 1173.78125 26.816406 1169.601562 31.515625 " fill-opacity="1" fill-rule="nonzero"/><path fill="#db9715" d="M 1211.824219 31.515625 C 1216.003906 36.210938 1214.371094 37.558594 1212.421875 39.292969 C 1210.476562 41.027344 1208.945312 42.492188 1204.765625 37.796875 C 1200.585938 33.101562 1195.339844 24.019531 1197.285156 22.285156 C 1199.234375 20.550781 1207.644531 26.816406 1211.824219 31.515625 " fill-opacity="1" fill-rule="nonzero"/><path fill="#db9715" d="M 1171.046875 12.542969 C 1166.480469 12.515625 1166.523438 14.632812 1166.507812 17.238281 C 1166.496094 19.847656 1166.425781 21.964844 1170.992188 21.992188 C 1175.558594 22.015625 1183.03125 19.941406 1183.046875 17.332031 C 1183.058594 14.726562 1175.613281 12.566406 1171.046875 12.542969 " fill-opacity="1" fill-rule="nonzero"/><path fill="#db9715" d="M 1210.375 12.542969 C 1214.945312 12.515625 1214.898438 14.632812 1214.914062 17.238281 C 1214.929688 19.847656 1214.996094 21.964844 1210.433594 21.988281 C 1205.863281 22.015625 1198.394531 19.941406 1198.378906 17.332031 C 1198.367188 14.726562 1205.808594 12.566406 1210.375 12.542969 " fill-opacity="1" fill-rule="nonzero"/><g clip-path="url(#b8c2709fd6)"><path fill="#db9715" d="M 1134.988281 26.789062 C 1134.890625 26.667969 1134.882812 26.585938 1134.988281 26.789062 Z M 1135.03125 29.199219 C 1135.15625 28.800781 1135.28125 28.382812 1135.425781 27.964844 C 1136.09375 29.953125 1136.566406 31.996094 1136.898438 34.066406 C 1137.332031 36.792969 1137.664062 39.550781 1137.773438 42.3125 C 1137.871094 44.632812 1138.457031 48.378906 1137.191406 50.429688 C 1136.6875 51.242188 1135.140625 50.992188 1134.285156 50.914062 C 1132.390625 50.746094 1132.851562 46.585938 1132.832031 45.300781 C 1132.917969 39.953125 1133.410156 34.324219 1135.03125 29.199219 Z M 1133.273438 23.125 C 1131.058594 25.238281 1130.371094 28.988281 1129.828125 31.851562 C 1128.988281 36.285156 1128.46875 40.785156 1128.402344 45.300781 C 1128.4375 48.128906 1128.339844 53.019531 1131.414062 54.589844 C 1133.164062 55.488281 1135.898438 55.757812 1137.808594 55.175781 C 1144.832031 53.03125 1142.277344 40.363281 1141.515625 35.117188 C 1141.183594 32.796875 1138.863281 17.789062 1133.273438 23.125 " fill-opacity="1" fill-rule="nonzero"/></g><g clip-path="url(#7458bd6b80)"><path fill="#db9715" d="M 1138.105469 2.660156 C 1138.105469 1.195312 1136.921875 0.0078125 1135.457031 0.0078125 C 1133.996094 0.0078125 1132.808594 1.195312 1132.808594 2.660156 C 1132.808594 4.121094 1133.996094 5.308594 1135.457031 5.308594 C 1136.921875 5.304688 1138.105469 4.121094 1138.105469 2.660156 " fill-opacity="1" fill-rule="nonzero"/></g><path fill="#db9715" d="M 1139.804688 15.578125 C 1139.804688 13.125 1137.816406 11.136719 1135.359375 11.136719 C 1132.90625 11.136719 1130.917969 13.125 1130.917969 15.578125 C 1130.917969 18.035156 1132.90625 20.023438 1135.359375 20.023438 C 1137.816406 20.023438 1139.808594 18.035156 1139.804688 15.578125 " fill-opacity="1" fill-rule="nonzero"/><path fill="#db9715" d="M 1114.40625 31.515625 C 1110.226562 36.210938 1111.859375 37.558594 1113.804688 39.292969 C 1115.757812 41.027344 1117.285156 42.492188 1121.464844 37.796875 C 1125.644531 33.101562 1130.894531 24.019531 1128.941406 22.285156 C 1126.992188 20.550781 1118.585938 26.816406 1114.40625 31.515625 " fill-opacity="1" fill-rule="nonzero"/><path fill="#db9715" d="M 1156.628906 31.515625 C 1160.808594 36.210938 1159.175781 37.558594 1157.230469 39.292969 C 1155.28125 41.027344 1153.753906 42.492188 1149.574219 37.796875 C 1145.390625 33.101562 1140.144531 24.019531 1142.09375 22.285156 C 1144.042969 20.550781 1152.449219 26.816406 1156.628906 31.515625 " fill-opacity="1" fill-rule="nonzero"/><g clip-path="url(#c30133a982)"><path fill="#db9715" d="M 1115.851562 12.542969 C 1111.289062 12.515625 1111.332031 14.632812 1111.3125 17.238281 C 1111.300781 19.847656 1111.230469 21.964844 1115.796875 21.992188 C 1120.363281 22.015625 1127.835938 19.941406 1127.851562 17.332031 C 1127.863281 14.726562 1120.421875 12.566406 1115.851562 12.542969 " fill-opacity="1" fill-rule="nonzero"/></g><path fill="#db9715" d="M 1155.183594 12.542969 C 1159.75 12.515625 1159.707031 14.632812 1159.71875 17.238281 C 1159.734375 19.847656 1159.804688 21.964844 1155.238281 21.988281 C 1150.671875 22.015625 1143.199219 19.941406 1143.183594 17.332031 C 1143.171875 14.726562 1150.617188 12.566406 1155.183594 12.542969 " fill-opacity="1" fill-rule="nonzero"/><g clip-path="url(#e986de9a24)"><path fill="#db9715" d="M 1412.210938 26.789062 C 1412.113281 26.667969 1412.105469 26.585938 1412.210938 26.789062 Z M 1412.253906 29.199219 C 1412.378906 28.800781 1412.503906 28.382812 1412.648438 27.964844 C 1413.316406 29.953125 1413.789062 31.996094 1414.121094 34.066406 C 1414.554688 36.792969 1414.886719 39.550781 1414.996094 42.3125 C 1415.09375 44.632812 1415.679688 48.378906 1414.414062 50.429688 C 1413.910156 51.242188 1412.363281 50.992188 1411.507812 50.914062 C 1409.613281 50.746094 1410.074219 46.585938 1410.054688 45.300781 C 1410.140625 39.953125 1410.632812 34.324219 1412.253906 29.199219 Z M 1410.496094 23.125 C 1408.28125 25.238281 1407.59375 28.988281 1407.050781 31.851562 C 1406.210938 36.285156 1405.691406 40.785156 1405.621094 45.300781 C 1405.660156 48.128906 1405.5625 53.019531 1408.636719 54.589844 C 1410.386719 55.488281 1413.121094 55.757812 1415.03125 55.175781 C 1422.050781 53.03125 1419.496094 40.363281 1418.738281 35.117188 C 1418.40625 32.796875 1416.085938 17.789062 1410.496094 23.125 " fill-opacity="1" fill-rule="nonzero"/></g><g clip-path="url(#ac542f7c8b)"><path fill="#db9715" d="M 1415.328125 2.660156 C 1415.332031 1.195312 1414.144531 0.0078125 1412.679688 0.0078125 C 1411.21875 0.0078125 1410.03125 1.195312 1410.03125 2.660156 C 1410.03125 4.121094 1411.21875 5.308594 1412.679688 5.308594 C 1414.140625 5.304688 1415.328125 4.121094 1415.328125 2.660156 " fill-opacity="1" fill-rule="nonzero"/></g><path fill="#db9715" d="M 1417.027344 15.578125 C 1417.027344 13.125 1415.039062 11.136719 1412.582031 11.136719 C 1410.128906 11.136719 1408.140625 13.125 1408.140625 15.578125 C 1408.140625 18.035156 1410.128906 20.023438 1412.582031 20.023438 C 1415.039062 20.023438 1417.027344 18.035156 1417.027344 15.578125 " fill-opacity="1" fill-rule="nonzero"/><path fill="#db9715" d="M 1391.628906 31.515625 C 1387.449219 36.210938 1389.078125 37.558594 1391.027344 39.292969 C 1392.980469 41.027344 1394.507812 42.492188 1398.6875 37.796875 C 1402.867188 33.101562 1408.117188 24.019531 1406.164062 22.285156 C 1404.214844 20.550781 1395.808594 26.816406 1391.628906 31.515625 " fill-opacity="1" fill-rule="nonzero"/><path fill="#db9715" d="M 1433.851562 31.515625 C 1438.03125 36.210938 1436.398438 37.558594 1434.453125 39.292969 C 1432.503906 41.027344 1430.972656 42.492188 1426.796875 37.796875 C 1422.613281 33.101562 1417.367188 24.019531 1419.316406 22.285156 C 1421.265625 20.550781 1429.671875 26.816406 1433.851562 31.515625 " fill-opacity="1" fill-rule="nonzero"/><path fill="#db9715" d="M 1393.074219 12.542969 C 1388.507812 12.515625 1388.554688 14.632812 1388.535156 17.238281 C 1388.523438 19.847656 1388.453125 21.964844 1393.019531 21.992188 C 1397.585938 22.015625 1405.058594 19.941406 1405.074219 17.332031 C 1405.085938 14.726562 1397.644531 12.566406 1393.074219 12.542969 " fill-opacity="1" fill-rule="nonzero"/><path fill="#db9715" d="M 1432.40625 12.542969 C 1436.972656 12.515625 1436.929688 14.632812 1436.941406 17.238281 C 1436.957031 19.847656 1437.027344 21.964844 1432.460938 21.988281 C 1427.890625 22.015625 1420.425781 19.941406 1420.40625 17.332031 C 1420.394531 14.726562 1427.839844 12.566406 1432.40625 12.542969 " fill-opacity="1" fill-rule="nonzero"/><g clip-path="url(#51f4e987a5)"><path fill="#db9715" d="M 1357.015625 26.789062 C 1356.917969 26.667969 1356.914062 26.585938 1357.015625 26.789062 Z M 1357.058594 29.199219 C 1357.183594 28.800781 1357.308594 28.382812 1357.457031 27.964844 C 1358.125 29.953125 1358.59375 31.996094 1358.925781 34.066406 C 1359.363281 36.792969 1359.695312 39.550781 1359.804688 42.3125 C 1359.898438 44.632812 1360.488281 48.378906 1359.21875 50.429688 C 1358.714844 51.242188 1357.167969 50.992188 1356.3125 50.914062 C 1354.421875 50.746094 1354.878906 46.585938 1354.863281 45.300781 C 1354.945312 39.953125 1355.4375 34.324219 1357.058594 29.199219 Z M 1355.300781 23.125 C 1353.089844 25.238281 1352.398438 28.988281 1351.855469 31.851562 C 1351.015625 36.285156 1350.5 40.785156 1350.429688 45.300781 C 1350.46875 48.128906 1350.371094 53.019531 1353.445312 54.589844 C 1355.195312 55.488281 1357.925781 55.757812 1359.839844 55.175781 C 1366.859375 53.03125 1364.304688 40.363281 1363.546875 35.117188 C 1363.210938 32.796875 1360.894531 17.789062 1355.300781 23.125 " fill-opacity="1" fill-rule="nonzero"/></g><g clip-path="url(#7f3eb4a34a)"><path fill="#db9715" d="M 1360.136719 2.660156 C 1360.136719 1.195312 1358.949219 0.0078125 1357.488281 0.0078125 C 1356.023438 0.0078125 1354.839844 1.195312 1354.835938 2.660156 C 1354.835938 4.121094 1356.023438 5.308594 1357.488281 5.308594 C 1358.949219 5.304688 1360.136719 4.121094 1360.136719 2.660156 " fill-opacity="1" fill-rule="nonzero"/></g><path fill="#db9715" d="M 1361.832031 15.578125 C 1361.832031 13.125 1359.84375 11.136719 1357.386719 11.136719 C 1354.9375 11.136719 1352.945312 13.125 1352.945312 15.578125 C 1352.945312 18.035156 1354.933594 20.023438 1357.386719 20.023438 C 1359.84375 20.023438 1361.835938 18.035156 1361.832031 15.578125 " fill-opacity="1" fill-rule="nonzero"/><path fill="#db9715" d="M 1336.4375 31.515625 C 1332.257812 36.210938 1333.886719 37.558594 1335.832031 39.292969 C 1337.785156 41.027344 1339.3125 42.492188 1343.492188 37.796875 C 1347.671875 33.101562 1352.921875 24.019531 1350.96875 22.285156 C 1349.023438 20.550781 1340.613281 26.816406 1336.4375 31.515625 " fill-opacity="1" fill-rule="nonzero"/><path fill="#db9715" d="M 1378.660156 31.515625 C 1382.835938 36.210938 1381.207031 37.558594 1379.257812 39.292969 C 1377.308594 41.027344 1375.78125 42.492188 1371.601562 37.796875 C 1367.421875 33.101562 1362.171875 24.019531 1364.125 22.285156 C 1366.070312 20.550781 1374.480469 26.816406 1378.660156 31.515625 " fill-opacity="1" fill-rule="nonzero"/><g clip-path="url(#9136722dab)"><path fill="#db9715" d="M 1337.878906 12.542969 C 1333.316406 12.515625 1333.359375 14.632812 1333.34375 17.238281 C 1333.332031 19.847656 1333.261719 21.964844 1337.828125 21.992188 C 1342.394531 22.015625 1349.867188 19.941406 1349.878906 17.332031 C 1349.894531 14.726562 1342.449219 12.566406 1337.878906 12.542969 " fill-opacity="1" fill-rule="nonzero"/></g><path fill="#db9715" d="M 1377.210938 12.542969 C 1381.78125 12.515625 1381.734375 14.632812 1381.75 17.238281 C 1381.761719 19.847656 1381.832031 21.964844 1377.265625 21.988281 C 1372.699219 22.015625 1365.230469 19.941406 1365.214844 17.332031 C 1365.199219 14.726562 1372.648438 12.566406 1377.210938 12.542969 " fill-opacity="1" fill-rule="nonzero"/></svg>